<?xml version="1.0" encoding="UTF-8" standalone="no"?>
<svg
   version="1.0"
   width="1061.000000pt"
   height="1111.000000pt"
   viewBox="0 0 1061.000000 1111.000000"
   preserveAspectRatio="xMidYMid meet"
   id="svg3"
   sodipodi:docname="about-decorative-motiv.svg"
   inkscape:version="1.4.3 (0d15f75042, 2025-12-25)"
   xmlns:inkscape="http://www.inkscape.org/namespaces/inkscape"
   xmlns:sodipodi="http://sodipodi.sourceforge.net/DTD/sodipodi-0.dtd"
   xmlns="http://www.w3.org/2000/svg"
   xmlns:svg="http://www.w3.org/2000/svg">
  <defs
     id="defs3" />
  <sodipodi:namedview
     id="namedview3"
     pagecolor="#505050"
     bordercolor="#ffffff"
     borderopacity="1"
     inkscape:showpageshadow="0"
     inkscape:pageopacity="0"
     inkscape:pagecheckerboard="1"
     inkscape:deskcolor="#505050"
     inkscape:document-units="pt"
     inkscape:zoom="0.72232223"
     inkscape:cx="606.37757"
     inkscape:cy="877.72461"
     inkscape:window-width="2400"
     inkscape:window-height="1279"
     inkscape:window-x="0"
     inkscape:window-y="0"
     inkscape:window-maximized="1"
     inkscape:current-layer="svg3" />
  <metadata
     id="metadata1">
Created by potrace 1.16, written by Peter Selinger 2001-2019
</metadata>
  <g
     transform="translate(0.000000,1111.000000) scale(0.100000,-0.100000)"
     fill="#000000"
     stroke="none"
     id="g3"
     style="fill:#ea494e;fill-opacity:1;stroke-width:0;stroke-dasharray:none">
    <path
       d="M2665 10937 c-89 -55 -227 -161 -328 -251 -108 -97 -187 -187 -277 -318 -112 -162 -156 -268 -320 -768 -247 -755 -295 -902 -387 -1195 -19 -60 -43 -135 -53 -165 -10 -30 -37 -116 -59 -190 -23 -74 -50 -160 -60 -190 -10 -30 -31 -95 -45 -145 -15 -49 -33 -108 -41 -130 -7 -22 -25 -80 -40 -130 -14 -49 -32 -108 -40 -130 -13 -40 -74 -238 -121 -395 -14 -47 -34 -112 -45 -145 -130 -420 -134 -443 -133 -730 l0 -240 33 -83 c52 -131 129 -234 206 -275 56 -30 165 -29 260 2 111 37 289 129 334 173 43 43 98 142 156 283 743 1796 1026 2663 1247 3820 18 98 22 153 22 295 -1 196 -5 229 -84 660 -12 63 -27 152 -33 198 l-11 82 -65 -1 c-56 0 -74 -5 -116 -32z"
       id="path1"
       style="fill:#ea494e;fill-opacity:1;stroke-width:0;stroke-dasharray:none" />
    <path
       d="M7595 8064 c-259 -39 -399 -99 -755 -324 -107 -67 -221 -139 -253 -159 -32 -20 -109 -68 -170 -108 -732 -469 -1109 -732 -1500 -1044 -270 -216 -442 -373 -737 -668 -179 -180 -337 -328 -425 -399 -77 -62 -183 -148 -235 -190 -144 -117 -556 -531 -638 -642 -126 -171 -163 -280 -142 -417 15 -97 61 -185 135 -257 144 -142 327 -173 514 -86 59 28 435 251 658 392 299 188 516 344 738 533 394 335 940 816 1422 1252 111 101 320 290 465 421 595 535 928 846 1057 986 181 197 271 400 271 609 l0 74 -72 13 c-77 13 -282 21 -333 14z"
       id="path2"
       style="fill:#ea494e;fill-opacity:1;stroke-width:0;stroke-dasharray:none" />
    <path
       d="M8920 2504 c-168 -20 -232 -30 -420 -65 -326 -61 -1053 -211 -1420 -294 -733 -164 -1543 -334 -2110 -440 -194 -37 -662 -138 -815 -176 -307 -77 -449 -183 -532 -396 -22 -58 -26 -83 -26 -173 0 -86 4 -118 25 -176 59 -168 188 -289 358 -338 117 -32 199 -37 427 -21 424 30 762 82 1303 200 168 37 395 86 505 110 110 24 299 66 420 94 891 204 1648 372 2067 461 575 122 751 176 1001 310 158 84 343 224 447 337 l60 66 0 89 0 88 -47 31 c-205 130 -486 234 -743 275 -91 15 -427 27 -500 18z"
       id="path3"
       style="fill:#ea494e;fill-opacity:1;stroke-width:0;stroke-dasharray:none" />
  </g>
  <path
     style="fill:#ea494e;stroke-width:0;fill-opacity:1;stroke-dasharray:none"
     d="m 127.70375,752.48925 c -8.58117,-4.22964 -16.78978,-14.98057 -24.99095,-32.73094 -6.630592,-14.35103 -6.777134,-15.21827 -6.777134,-40.10717 0,-44.84893 -0.224864,-43.93188 51.915104,-211.72003 46.87628,-150.84942 98.5319,-308.70834 109.71314,-335.28196 7.38177,-17.54371 23.62337,-42.620564 37.94725,-58.590179 11.66985,-13.010625 34.69108,-32.492829 53.74829,-45.485613 11.40286,-7.774222 14.69684,-9.102597 21.33693,-8.604613 l 7.85232,0.588898 5.5732,32.304867 c 16.98041,98.42652 16.24496,110.62942 -14.04187,232.98662 -23.30751,94.16107 -59.0792,198.22955 -118.78155,345.56418 -38.1303,94.0987 -39.15768,95.92872 -60.58088,107.90924 -26.81697,14.99692 -49.54891,19.75429 -62.91385,13.1667 z"
     id="path4"
     transform="scale(0.75)" />
  <path
     style="fill:#ea494e;fill-opacity:1;stroke-width:0;stroke-dasharray:none"
     d="m 417.49216,984.30365 c -24.01366,-3.29509 -46.04647,-24.21405 -51.37664,-48.77935 -1.31507,-6.0608 -1.15859,-18.42163 0.30232,-23.88131 4.14266,-15.48187 14.36273,-31.11103 34.17468,-52.26199 11.89039,-12.69403 46.05028,-46.72357 57.30561,-57.08696 3.80717,-3.50545 15.64399,-13.42405 26.30405,-22.04131 29.47824,-23.8293 35.60102,-29.4159 77.14854,-70.39253 43.75818,-43.15691 60.84991,-58.54327 96.86921,-87.20376 48.88564,-38.89822 98.37751,-73.49381 184.20188,-128.75996 30.36575,-19.55387 78.73178,-49.93405 93.10249,-58.48053 26.4344,-15.72092 45.92085,-23.4594 69.9134,-27.76408 7.5415,-1.35308 9.8366,-1.4522 24.9196,-1.07629 15.8676,0.39546 21.1614,0.83304 31.1759,2.57701 l 4.473,0.77894 v 9.52923 c 0,24.02909 -7.6617,44.85267 -25.1593,68.37991 -10.0817,13.55576 -45.19022,47.67182 -104.97649,102.00898 C 809.19252,704.98172 733.51828,772.532 664.52143,832.0681 c -45.21826,39.01802 -62.89612,52.8451 -95.40446,74.62248 -35.67408,23.8981 -108.00983,67.66251 -120.27509,72.76854 -10.45038,4.35051 -21.97321,6.13115 -31.34972,4.84453 z"
     id="path5"
     transform="scale(0.75)" />
  <path
     style="fill:#ea494e;fill-opacity:1;stroke-width:0;stroke-dasharray:none"
     d="m 544.28807,1424.1182 c -26.66942,-4.9938 -48.04335,-20.6248 -57.82503,-42.2882 -4.61641,-10.2239 -5.5519,-14.9425 -5.54376,-27.9624 0.0211,-33.8559 19.50357,-57.8866 56.97045,-70.2706 18.73705,-6.1932 76.7068,-19.1678 145.40716,-32.5448 69.22375,-13.4788 143.68962,-29.0458 246.69171,-51.5706 141.5179,-30.9475 227.6162,-47.8565 260.3968,-51.1398 19.9106,-1.9943 66.8145,2.0104 88.5364,7.5592 23.0755,5.8947 48.0861,15.8941 67.4138,26.9525 l 14.3846,8.2302 v 11.4926 11.4925 l -14.0398,13.7095 c -24.0463,23.4806 -58.183,44.3129 -92.3851,56.379 -23.3875,8.2508 -41.3754,12.6653 -136.3511,33.4625 -44.6884,9.7856 -125.74426,27.8636 -180.12412,40.1732 -198.47593,44.928 -255.58653,56.3432 -312.28038,62.4185 -30.30151,3.247 -73.64459,5.331 -81.25163,3.9067 z"
     id="path6"
     transform="scale(0.75)" />
  <path
     style="fill:#ea494e;fill-opacity:1;stroke-width:0;stroke-dasharray:none"
     d="m 389.5317,201.9528 c 0.077,-0.76143 0.68779,-4.58298 1.35743,-8.49233 3.06579,-17.89815 4.36061,-32.07684 4.36061,-47.74988 0,-20.3646 -1.99982,-38.63565 -8.50311,-77.687247 -1.23507,-7.41653 -2.19737,-13.72431 -2.13842,-14.017289 0.20982,-1.042897 7.85172,42.185527 9.42831,53.333716 1.68389,11.90689 1.95534,16.029 2.15081,32.66007 0.24783,21.08705 -0.20785,28.63416 -2.51809,41.70577 -1.16955,6.61747 -4.31632,22.01628 -4.13754,20.24719 z"
     id="path7"
     transform="scale(0.75)" />
  <path
     style="fill:#ea494e;fill-opacity:1;stroke-width:0;stroke-dasharray:none"
     d="m 295.51612,200.03937 v -53.32143 h 49.80333 49.80334 l -2.1e-4,1.23896 c -6e-4,3.39974 -0.22999,9.48715 -0.5228,13.87335 -1.44964,21.71538 -5.70582,45.36891 -15.73774,87.46176 l -0.96239,4.03811 -41.19177,0.0153 -41.19176,0.0153 z"
     id="path8"
     transform="scale(0.75)" />
  <path
     style="fill:#ea494e;fill-opacity:1;stroke-width:0;stroke-dasharray:none"
     d="m 389.62111,201.55035 c -0.008,-0.13915 0.40331,-2.70745 1.24765,-7.78233 0.91499,-5.49962 1.23339,-7.52619 1.71585,-10.92125 1.66345,-11.70554 2.51863,-22.33851 2.64126,-32.84022 l 0.0384,-3.28861 h 0.48983 0.48984 l -0.0406,4.8182 c -0.10215,12.13469 -0.58316,18.33039 -2.15532,27.76199 -0.79238,4.75359 -2.76268,14.84267 -4.03862,20.68001 -0.33866,1.54937 -0.37966,1.71537 -0.38833,1.57221 z"
     id="path9"
     transform="scale(0.75)" />
  <path
     style="fill:#ea494e;fill-opacity:1;stroke-width:0;stroke-dasharray:none"
     d="m 295.51612,200.03937 v -53.32143 h 49.80333 49.80334 l -6.1e-4,1.30015 c -7.2e-4,1.52732 -0.0935,5.30728 -0.18349,7.47968 -0.84525,20.39418 -4.1316,41.46003 -11.69249,74.94973 -1.33827,5.9277 -3.60721,15.65605 -4.96588,21.29185 l -0.3835,1.59077 -41.19035,0.0153 -41.19035,0.0153 z"
     id="path10"
     transform="scale(0.75)" />
  <path
     style="fill:#ea494e;fill-opacity:1;stroke-width:0;stroke-dasharray:none"
     d="m 295.51612,200.03932 v -53.32138 h 49.80333 49.80334 l -1.2e-4,1.30015 c -2.6e-4,2.71962 -0.18385,8.16778 -0.4005,11.88488 -0.83047,14.24863 -2.97217,29.55545 -6.84857,48.94677 -2.29852,11.49817 -5.01151,23.64547 -9.432,42.23146 l -0.54195,2.27867 -41.19177,4.2e-4 -41.19176,4.2e-4 z"
     id="path11"
     transform="scale(0.75)" />
  <path
     style="fill:#ea494e;fill-opacity:1;stroke-width:0;stroke-dasharray:none"
     d="m 295.51612,200.03932 v -53.32138 h 49.80333 49.80334 l -3.4e-4,1.39192 c -8.2e-4,3.37296 -0.23071,9.43696 -0.52131,13.75099 -1.46996,21.82172 -5.62341,44.91415 -15.70077,87.2935 l -1.00023,4.20636 h -41.19201 -41.19201 z"
     id="path12"
     transform="scale(0.75)" />
  <path
     style="fill:#ea494e;fill-opacity:1;stroke-width:0;stroke-dasharray:none"
     d="m 295.51612,200.03932 v -53.32138 h 49.80333 49.80334 l -2e-4,1.45311 c -2.1e-4,1.60949 -0.087,5.10955 -0.18402,7.41849 -0.84582,20.13668 -4.04766,40.83064 -11.35123,73.36475 -1.36878,6.09733 -3.02691,13.23124 -5.23546,22.52503 l -0.44708,1.88139 h -41.19434 -41.19434 z"
     id="path13"
     transform="scale(0.75)" />
  <path
     style="fill:#ea494e;fill-opacity:1;stroke-width:0;stroke-dasharray:none"
     d="m 391.27977,190.67826 c -0.002,-0.10096 0.0881,-0.72044 0.19956,-1.37663 0.11143,-0.6562 0.20397,-1.11048 0.20565,-1.00953 0.002,0.10095 -0.0881,0.72044 -0.19956,1.37663 -0.11143,0.65619 -0.20398,1.11048 -0.20565,1.00953 z"
     id="path14"
     transform="scale(0.75)" />
  <path
     style="fill:#ea494e;fill-opacity:1;stroke-width:0;stroke-dasharray:none"
     d="m 127.70375,752.48925 c -7.93516,-3.91123 -16.09636,-14.04053 -24.41704,-30.30529 L 96.914602,709.72814 97.032969,672.5286 C 97.171671,628.93845 94.354406,641.46796 130.49029,523.73042 187.87769,336.7514 248.42713,151.23936 260.0653,126.73709 274.60086,96.134811 295.87542,70.229047 327.09242,45.119029 352.84406,24.405168 362.04174,19.170626 371.32826,19.943722 l 7.37449,0.613921 2.35231,14.68403 c 1.29376,8.076217 5.07086,30.346192 8.39356,49.488833 10.88326,62.700394 8.44066,89.708984 -17.53165,193.852184 -25.72539,103.153 -55.68899,191.23506 -116.69525,343.04127 -41.83412,104.09879 -43.83997,107.59524 -69.01701,120.30456 -26.16863,13.20989 -45.89987,16.77182 -58.50096,10.56073 z"
     id="path41"
     transform="scale(0.75)" />
</svg>
