<?xml version="1.0" encoding="UTF-8" standalone="no"?>
<svg
   version="1.0"
   width="728.000000pt"
   height="1073.000000pt"
   viewBox="0 0 728.000000 1073.000000"
   preserveAspectRatio="xMidYMid meet"
   id="svg4"
   sodipodi:docname="about-picture-border.svg"
   inkscape:version="1.4.3 (0d15f75042, 2025-12-25)"
   xmlns:inkscape="http://www.inkscape.org/namespaces/inkscape"
   xmlns:sodipodi="http://sodipodi.sourceforge.net/DTD/sodipodi-0.dtd"
   xmlns="http://www.w3.org/2000/svg"
   xmlns:svg="http://www.w3.org/2000/svg">
  <defs
     id="defs4" />
  <sodipodi:namedview
     id="namedview4"
     pagecolor="#505050"
     bordercolor="#ffffff"
     borderopacity="1"
     inkscape:showpageshadow="0"
     inkscape:pageopacity="0"
     inkscape:pagecheckerboard="1"
     inkscape:deskcolor="#505050"
     inkscape:document-units="pt"
     inkscape:zoom="0.74790308"
     inkscape:cx="484.68847"
     inkscape:cy="300.84112"
     inkscape:window-width="2400"
     inkscape:window-height="1279"
     inkscape:window-x="0"
     inkscape:window-y="0"
     inkscape:window-maximized="1"
     inkscape:current-layer="svg4" />
  <metadata
     id="metadata1">
Created by potrace 1.16, written by Peter Selinger 2001-2019
</metadata>
  <g
     transform="translate(0.000000,1073.000000) scale(0.100000,-0.100000)"
     fill="#000000"
     stroke="none"
     id="g4"
     style="stroke-width:0;stroke-dasharray:none;fill:#ff5055;fill-opacity:1">
    <path
       d="M1090 10580 c-560 -11 -878 -27 -906 -45 -30 -19 -32 -51 -23 -360 10 -357 3 -1929 -10 -2265 -36 -954 -38 -1968 -10 -4170 6 -454 12 -1387 13 -2075 0 -687 4 -1255 9 -1262 28 -44 276 -79 652 -93 160 -6 379 -15 488 -20 316 -16 5493 -12 5537 4 29 10 38 21 53 62 16 45 17 75 10 364 -13 541 1 2401 27 3515 6 226 14 1171 20 2100 5 930 14 1971 20 2315 28 1606 29 1837 8 1877 -14 29 -47 40 -138 48 -117 9 -5275 14 -5750 5z m4360 -56 c1232 -2 1453 -7 1469 -33 9 -13 25 -441 17 -448 -7 -8 -1953 -5 -2676 4 -731 9 -1891 1 -2435 -17 -187 -6 -624 -14 -971 -17 l-632 -6 -6 149 c-3 82 -7 192 -9 243 l-2 95 34 7 c18 4 362 12 765 19 402 6 805 13 896 14 91 2 640 1 1220 -2 580 -3 1629 -6 2330 -8z m318 -540 l1162 -6 0 -24 c0 -16 -7 -25 -22 -28 -13 -3 -241 -7 -508 -10 -267 -3 -609 -11 -760 -16 -151 -6 -765 -11 -1365 -12 -636 0 -1234 -6 -1435 -13 -247 -9 -459 -9 -745 -3 -378 9 -926 6 -1583 -8 l-293 -7 3 47 3 47 605 4 c333 2 763 9 955 15 889 30 879 30 3983 14z m1158 -431 c-19 -930 -27 -1700 -36 -3333 -6 -987 -14 -1975 -20 -2196 -26 -1111 -32 -1686 -26 -2439 4 -440 9 -842 12 -892 l5 -93 -1533 0 c-843 1 -1634 5 -1758 10 -567 23 -1010 32 -2140 43 l-1215 12 -1 1180 c-1 649 -7 1545 -13 1990 -6 446 -14 1334 -17 1975 -5 972 -4 1247 10 1660 25 771 36 1292 36 1836 l0 501 343 9 c435 11 948 11 1482 0 298 -6 528 -5 790 4 208 7 859 13 1485 15 670 1 1237 7 1420 14 328 14 794 27 1034 29 l149 2 -7 -327z m-5121 -8963 c638 -6 1270 -15 1405 -20 602 -23 1345 -32 2465 -29 l1188 4 -6 -84 c-4 -67 -9 -87 -26 -105 l-22 -21 -2652 2 c-1575 2 -2764 7 -2927 13 -627 24 -762 30 -802 39 -24 5 -74 14 -111 21 -103 16 -107 21 -107 111 0 41 3 78 6 82 3 3 101 4 218 1 116 -2 733 -9 1371 -14z"
       id="path1"
       style="stroke-width:0;stroke-dasharray:none;fill:#ff5055;fill-opacity:1" />
    <path
       d="M784 10380 c-76 -30 -74 -184 3 -219 125 -57 228 97 133 199 -23 25 -36 30 -72 29 -23 0 -52 -4 -64 -9z m111 -63 c34 -48 1 -127 -52 -127 -31 0 -73 42 -73 72 0 47 51 91 92 80 10 -2 25 -14 33 -25z"
       id="path2"
       style="stroke-width:0;stroke-dasharray:none;fill:#ff5055;fill-opacity:1" />
    <path
       d="M1101 10364 c-31 -22 -53 -77 -45 -112 20 -83 73 -121 144 -102 54 15 82 56 82 123 0 45 -4 55 -31 79 -25 22 -41 28 -79 28 -28 0 -57 -7 -71 -16z m119 -44 c43 -43 9 -130 -51 -130 -31 0 -69 40 -69 72 0 64 77 101 120 58z"
       id="path3"
       style="stroke-width:0;stroke-dasharray:none;fill:#ff5055;fill-opacity:1" />
    <path
       d="M453 10350 c-62 -37 -80 -123 -37 -171 27 -30 78 -42 119 -29 43 14 65 53 65 115 0 38 -5 52 -29 76 -35 34 -72 37 -118 9z"
       id="path4"
       style="stroke-width:0;stroke-dasharray:none;fill:#ff5055;fill-opacity:1" />
  </g>
  <path
     style="fill:#ff5055;stroke-width:0;stroke-dasharray:none;fill-opacity:1"
     d="M 248.02679,1391.8132 C 110.109,1390.5791 45.705686,1386.92 27.418651,1379.2793 c -4.10512,-1.7154 -4.526027,-2.4453 -5.190018,-9.0007 -0.397426,-3.9237 -1.040919,-94.0771 -1.429985,-200.3409 C 20.409582,1063.6739 19.414847,923.48196 18.588127,858.4 16.906649,726.02888 17.835713,440.84905 20.093103,396.44174 20.880872,380.94478 21.749939,292.34636 22.032619,198.71471 22.369728,87.054734 23.006023,28.604943 23.894133,27.716832 26.16321,25.447756 37.319036,24.29315 74.571397,22.471837 102.28791,21.116743 200.48261,20.724611 512.09844,20.724611 c 431.07673,0 413.65424,-0.270861 417.52854,6.491147 1.95912,3.419357 1.83473,91.318592 -0.30017,212.120072 -0.74729,42.28489 -1.9784,166.83311 -2.73579,276.77383 -1.37516,199.61144 -2.78967,322.62135 -5.45055,473.9919 -0.77562,44.12334 -1.55719,150.32024 -1.73683,235.99314 -0.34301,163.5973 -0.25724,161.2649 -6.03054,163.9973 -4.89335,2.316 -465.67362,3.5081 -665.34631,1.7212 z m 663.12791,-7.8781 c 2.02014,-2.2323 4.41495,-14.6402 4.68067,-24.2514 0.0534,-1.9302 -17.14444,-2.1284 -188.80266,-2.1748 -108.09125,-0.029 -208.87521,-0.6855 -235.65888,-1.5347 -84.40376,-2.676 -461.434353,-7.8385 -462.934152,-6.3387 -0.292172,0.2922 -0.61879,5.109 -0.725815,10.704 -0.143365,7.4947 0.337285,10.7046 1.825826,12.1932 2.476393,2.4764 24.584897,6.8714 39.988037,7.9494 62.148544,4.3495 164.442574,5.3944 567.045414,5.7922 268.40708,0.2653 272.2542,0.2325 274.58156,-2.3392 z m 3.78263,-39.1753 c -1.68167,-11.2548 -1.16002,-346.49587 0.64131,-412.15232 0.88775,-32.35714 2.22271,-143.36751 2.96657,-246.68972 1.77347,-246.33008 3.86829,-447.07589 5.39197,-516.71132 0.67502,-30.84957 1.06451,-56.25293 0.86554,-56.4519 -0.56923,-0.56923 -107.52381,2.05748 -145.28995,3.56819 -45.85765,1.83439 -372.41047,4.43652 -575.60934,4.58674 -90.4529,0.0669 -166.63398,0.61853 -169.291291,1.22591 l -4.831477,1.10433 -0.793731,113.20226 c -0.436552,62.26125 -1.704078,139.37544 -2.816725,171.36488 -2.350257,67.57167 -2.716761,277.97146 -0.761617,437.22243 0.672621,54.78651 1.647815,189.04422 2.167097,298.35042 l 0.94415,198.7385 46.911111,0.7909 c 25.801113,0.435 103.168403,1.442 171.927313,2.2378 68.75891,0.7957 141.8633,2.0715 162.4542,2.835 46.73304,1.7328 201.37432,3.1946 374.09184,3.5362 l 132.08189,0.2613 z M 253.84249,114.8041 c 302.70849,-1.63833 495.35238,-3.3396 589.18119,-5.20315 69.31203,-1.37663 79.09008,-1.82495 80.55856,-3.69363 3.11325,-3.96172 1.86996,-5.41179 -5.34828,-6.237834 -3.8608,-0.441819 -146.30907,-0.936375 -316.55172,-1.099014 -228.67268,-0.218458 -320.3599,0.139772 -350.98131,1.371315 -22.79707,0.916863 -81.85957,2.068023 -131.25001,2.558123 l -89.800791,0.89111 -0.559551,6.13284 c -0.621679,6.81379 -0.16238,8.59748 1.887605,7.33052 0.757804,-0.46835 101.046747,-1.39097 222.864307,-2.05028 z M 189.86417,94.850194 c 163.32369,-3.26062 230.79471,-3.675435 477.21771,-2.933955 l 258.60648,0.77814 -0.83488,-29.869269 c -0.64946,-23.23539 -1.25867,-30.293048 -2.74297,-31.777346 -3.45471,-3.454716 -71.1521,-4.197175 -418.70303,-4.592047 -244.76062,-0.278087 -355.04913,0.0789 -403.12711,1.304874 -36.401772,0.928231 -67.8993,2.042079 -69.994502,2.475217 l -3.809459,0.787524 0.85377,26.940359 c 0.469573,14.817197 1.166415,29.647929 1.548535,32.957181 l 0.694765,6.016823 44.378681,-0.329699 c 24.408275,-0.181335 76.56868,-0.972346 115.91201,-1.757802 z"
     id="path5"
     transform="scale(0.75)" />
  <path
     style="fill:#ff5055;stroke-width:0;stroke-dasharray:none;fill-opacity:1"
     d="m 60.645557,76.224341 c -4.323974,-1.744939 -7.162691,-6.689473 -7.162691,-12.476115 0,-7.207096 6.915848,-14.276575 13.966322,-14.276575 7.431091,0 11.438039,4.698739 11.438039,13.412793 0,5.787168 -0.605923,7.454908 -3.908363,10.757348 -4.029187,4.029187 -8.674481,4.866168 -14.333307,2.582549 z"
     id="path6"
     transform="scale(0.75)" />
  <path
     style="fill:#ff5055;stroke-width:0;stroke-dasharray:none;fill-opacity:1"
     d="m 102.25218,72.707575 c -5.894909,-6.360708 -5.955662,-17.609115 -0.1247,-23.087023 2.0752,-1.949542 5.02207,-2.947092 9.24957,-3.131081 5.22073,-0.227217 6.8437,0.34275 10.23925,3.595892 10.36877,9.933914 4.03759,26.127721 -10.21498,26.127721 -4.6493,0 -6.58918,-0.743269 -9.14914,-3.505509 z m 16.65015,-4.028701 c 3.60999,-4.589361 3.55236,-10.849457 -0.13602,-14.775564 -3.67327,-3.910018 -8.03067,-3.940438 -12.34421,-0.08618 -5.18869,4.636222 -5.64669,9.156426 -1.43493,14.161816 4.55998,5.419232 9.98818,5.692267 13.91516,0.699924 z"
     id="path7"
     transform="scale(0.75)" />
  <path
     style="fill:#ff5055;stroke-width:0;stroke-dasharray:none;fill-opacity:1"
     d="m 149.43456,75.523199 c -8.22945,-4.613828 -10.21185,-16.518309 -3.92283,-23.556946 3.15392,-3.529846 4.80318,-4.255142 9.92921,-4.366578 4.31313,-0.09376 7.27355,0.704799 9.92285,2.676654 3.23695,2.409243 3.8326,3.874772 4.174,10.269627 0.3514,6.582177 -0.0417,7.947391 -3.34268,11.609672 -4.50736,5.000668 -11.38345,6.382229 -16.76055,3.367571 z m 13.59114,-6.844325 c 5.80885,-7.384754 2.17505,-16.53308 -6.56709,-16.53308 -6.70136,0 -11.33732,5.181447 -10.14974,11.344008 1.65446,8.585277 11.61365,11.676709 16.71683,5.189072 z"
     id="path8"
     transform="scale(0.75)" />
</svg>
