<?xml version="1.0" encoding="UTF-8" standalone="no"?>
<svg
   version="1.0"
   width="1190.000000pt"
   height="1074.000000pt"
   viewBox="0 0 1190.000000 1074.000000"
   preserveAspectRatio="xMidYMid meet"
   id="svg6"
   sodipodi:docname="about-text-border.svg"
   inkscape:version="1.4.3 (0d15f75042, 2025-12-25)"
   xmlns:inkscape="http://www.inkscape.org/namespaces/inkscape"
   xmlns:sodipodi="http://sodipodi.sourceforge.net/DTD/sodipodi-0.dtd"
   xmlns="http://www.w3.org/2000/svg"
   xmlns:svg="http://www.w3.org/2000/svg">
  <defs
     id="defs6" />
  <sodipodi:namedview
     id="namedview6"
     pagecolor="#505050"
     bordercolor="#ffffff"
     borderopacity="1"
     inkscape:showpageshadow="0"
     inkscape:pageopacity="0"
     inkscape:pagecheckerboard="1"
     inkscape:deskcolor="#505050"
     inkscape:document-units="pt"
     inkscape:zoom="0.37360335"
     inkscape:cx="1245.9738"
     inkscape:cy="749.45794"
     inkscape:window-width="2400"
     inkscape:window-height="1279"
     inkscape:window-x="0"
     inkscape:window-y="0"
     inkscape:window-maximized="1"
     inkscape:current-layer="svg6" />
  <metadata
     id="metadata1">
Created by potrace 1.16, written by Peter Selinger 2001-2019
</metadata>
  <g
     transform="translate(0.000000,1074.000000) scale(0.100000,-0.100000)"
     fill="#000000"
     stroke="none"
     id="g6"
     style="fill:#ff5055;fill-opacity:1;stroke-width:0;stroke-dasharray:none">
    <path
       d="M1570 10550 c-226 -18 -737 -71 -823 -86 -215 -36 -261 -54 -292 -114 -31 -61 -50 -727 -61 -2175 -3 -456 -10 -1019 -14 -1250 -5 -231 -14 -1282 -19 -2335 -5 -1053 -12 -2124 -16 -2380 -13 -932 29 -1544 118 -1716 24 -46 87 -105 134 -126 108 -48 219 -54 1393 -78 1172 -23 1863 -29 3485 -29 1003 0 1932 -4 2265 -11 706 -15 2072 -15 2365 0 966 49 1260 86 1383 177 99 74 149 278 171 700 6 109 7 1016 4 2280 -4 1488 -3 2246 6 2608 35 1490 49 3102 32 3495 -15 329 -47 709 -66 775 -8 28 -30 69 -50 93 -57 66 -105 82 -280 93 -82 5 -251 17 -375 25 -124 9 -290 20 -370 24 -82 5 -656 4 -1320 -3 -1609 -15 -1909 -15 -2120 3 -147 13 -423 14 -1720 12 -850 -2 -1831 1 -2180 7 -1030 17 -1528 20 -1650 11z m1835 -71 c665 -11 1259 -9 2755 7 380 4 628 3 730 -5 85 -6 259 -18 385 -27 202 -14 285 -15 685 -5 250 6 871 16 1380 22 956 10 1241 5 1555 -27 83 -8 237 -19 343 -24 222 -10 265 -23 307 -90 34 -53 42 -93 60 -295 9 -99 20 -227 25 -284 7 -76 7 -107 -1 -112 -23 -14 -1255 9 -1744 32 -149 8 -1237 13 -3075 17 -3576 7 -4110 6 -4500 -7 -173 -6 -656 -14 -1072 -17 l-757 -7 -7 29 c-4 16 -3 158 3 315 12 313 19 347 71 368 77 29 319 61 772 100 129 12 255 23 280 25 65 6 980 -2 1805 -15z m3660 -845 c1708 0 2536 -4 2735 -12 360 -15 897 -30 1427 -38 l412 -7 8 -46 c12 -71 8 -1333 -5 -1831 -26 -983 -34 -2009 -31 -4275 3 -1802 1 -2362 -9 -2470 -18 -199 -9 -182 -94 -189 -40 -3 -131 -10 -203 -16 -71 -5 -263 -17 -425 -25 -162 -8 -369 -19 -460 -25 -785 -46 -1407 -55 -2345 -32 -431 10 -927 11 -2460 3 -1056 -6 -2084 -16 -2285 -22 -480 -14 -916 -5 -2125 41 -143 6 -348 10 -455 10 -107 0 -218 3 -247 6 l-52 7 -6 46 c-3 25 -10 80 -15 121 -23 173 -30 436 -31 1160 -1 1159 20 4322 31 4600 5 135 14 803 20 1485 7 682 15 1294 18 1360 l7 120 750 7 c413 4 914 14 1115 22 289 12 564 13 1320 8 525 -4 2058 -7 3405 -8z m4501 -8964 c-15 -109 -75 -193 -170 -235 -102 -46 -423 -85 -891 -110 -159 -8 -319 -17 -355 -20 -36 -3 -347 -10 -692 -15 -481 -7 -795 -5 -1350 7 -497 10 -1388 16 -2848 18 -1169 2 -2316 9 -2550 14 -234 6 -681 15 -995 21 -835 14 -925 18 -1025 43 -77 19 -90 25 -137 73 -39 39 -56 65 -68 108 -9 30 -13 61 -9 67 9 15 506 6 1204 -22 693 -27 1351 -34 1745 -19 206 8 888 15 1910 18 2332 8 2315 8 3143 -7 772 -15 1115 -11 1652 19 597 33 923 53 1125 69 127 10 250 19 274 20 l44 1 -7 -50z"
       id="path1"
       style="fill:#ff5055;fill-opacity:1;stroke-width:0;stroke-dasharray:none" />
    <path
       d="M9338 10353 c-127 -3 -149 -6 -157 -21 -12 -24 -1 -498 13 -517 20 -27 537 -50 576 -25 13 8 15 50 15 279 0 148 -4 273 -8 278 -9 9 -205 12 -439 6z m402 -289 l0 -237 -251 5 c-196 5 -253 9 -260 19 -5 8 -9 112 -9 232 l0 217 260 0 260 0 0 -236z"
       id="path2"
       style="fill:#ff5055;fill-opacity:1;stroke-width:0;stroke-dasharray:none" />
    <path
       d="M9310 10012 c0 -17 13 -19 151 -25 150 -7 195 -1 186 26 -2 8 -53 13 -170 15 -157 2 -167 1 -167 -16z"
       id="path3"
       style="fill:#ff5055;fill-opacity:1;stroke-width:0;stroke-dasharray:none" />
    <path
       d="M10761 10319 l-24 -9 6 -193 c3 -105 11 -232 18 -280 11 -81 14 -89 38 -99 16 -6 129 -8 289 -6 l264 3 20 25 c19 23 20 34 13 135 -17 281 -33 409 -51 422 -22 16 -534 18 -573 2z m555 -169 c7 -63 13 -169 15 -235 l4 -120 -75 -6 c-145 -12 -415 -10 -432 4 -21 15 -38 177 -38 354 l0 123 258 -2 257 -3 11 -115z"
       id="path4"
       style="fill:#ff5055;fill-opacity:1;stroke-width:0;stroke-dasharray:none" />
    <path
       d="M11134 10098 l-59 -57 -65 49 c-61 47 -100 62 -100 40 0 -8 26 -32 110 -99 l25 -20 -67 -64 c-38 -34 -68 -66 -68 -70 0 -23 47 1 105 54 59 53 69 59 85 47 74 -55 125 -86 132 -82 13 9 -3 29 -65 79 l-57 46 46 54 c65 77 51 92 -22 23z"
       id="path5"
       style="fill:#ff5055;fill-opacity:1;stroke-width:0;stroke-dasharray:none" />
    <path
       d="M10010 10300 c-19 -19 -20 -33 -20 -279 0 -179 3 -262 11 -267 21 -12 551 -5 567 9 12 10 14 52 10 271 -5 236 -7 260 -24 273 -14 10 -75 13 -271 13 -240 0 -254 -1 -273 -20z m510 -69 c0 -37 -2 -39 -37 -45 -21 -3 -129 -6 -240 -6 l-203 0 0 45 0 45 240 0 240 0 0 -39z m10 -139 c0 -27 3 -104 7 -170 l6 -122 -256 0 -257 0 0 98 c0 53 3 127 6 164 l7 67 66 4 c36 2 146 4 244 5 l177 2 0 -48z"
       id="path6"
       style="fill:#ff5055;fill-opacity:1;stroke-width:0;stroke-dasharray:none" />
  </g>
</svg>
