<?xml version="1.0" encoding="UTF-8" standalone="no"?>
<svg
   version="1.0"
   width="1453.000000pt"
   height="207.000000pt"
   viewBox="0 0 1453.000000 207.000000"
   preserveAspectRatio="xMidYMid meet"
   id="svg1"
   sodipodi:docname="cases-decorative-motiv.svg"
   inkscape:version="1.4.3 (0d15f75042, 2025-12-25)"
   xmlns:inkscape="http://www.inkscape.org/namespaces/inkscape"
   xmlns:sodipodi="http://sodipodi.sourceforge.net/DTD/sodipodi-0.dtd"
   xmlns="http://www.w3.org/2000/svg"
   xmlns:svg="http://www.w3.org/2000/svg">
  <defs
     id="defs1" />
  <sodipodi:namedview
     id="namedview1"
     pagecolor="#505050"
     bordercolor="#ffffff"
     borderopacity="1"
     inkscape:showpageshadow="0"
     inkscape:pageopacity="0"
     inkscape:pagecheckerboard="1"
     inkscape:deskcolor="#505050"
     inkscape:document-units="pt"
     inkscape:zoom="0.82305185"
     inkscape:cx="931.29005"
     inkscape:cy="130.00396"
     inkscape:window-width="2400"
     inkscape:window-height="1279"
     inkscape:window-x="0"
     inkscape:window-y="0"
     inkscape:window-maximized="1"
     inkscape:current-layer="svg1" />
  <metadata
     id="metadata1">
Created by potrace 1.16, written by Peter Selinger 2001-2019
</metadata>
  <g
     transform="translate(0.000000,207.000000) scale(0.100000,-0.100000)"
     fill="#000000"
     stroke="none"
     id="g1"
     style="fill:#ff5055;fill-opacity:1">
    <path
       d="M4055 1759 c-254 -26 -546 -127 -1065 -367 -36 -17 -94 -42 -130 -57 -36 -14 -78 -32 -95 -40 -77 -35 -344 -117 -460 -141 -114 -24 -154 -27 -320 -28 -169 -1 -201 2 -285 23 -152 38 -280 104 -407 209 -78 64 -156 115 -223 143 -45 20 -72 24 -151 24 -93 0 -98 -1 -146 -34 -96 -66 -133 -157 -133 -330 1 -126 30 -262 65 -302 18 -19 19 -18 69 30 64 59 108 75 193 68 83 -6 171 -49 323 -157 168 -120 286 -178 445 -221 82 -22 109 -24 300 -24 164 0 228 4 295 18 233 50 410 113 790 282 415 184 612 259 787 300 187 44 388 61 535 45 296 -32 570 -128 1068 -375 368 -182 690 -301 920 -339 343 -57 592 -12 1085 199 484 207 653 250 965 249 355 -2 650 -67 1295 -287 609 -208 898 -271 1235 -270 146 0 198 5 311 26 274 53 600 172 956 350 642 321 1081 410 1471 299 78 -22 95 -24 102 -12 5 7 22 61 39 119 60 205 78 379 44 419 -20 23 -83 42 -235 73 -182 37 -489 21 -678 -36 -188 -57 -243 -75 -380 -130 -144 -58 -253 -105 -425 -185 -442 -205 -700 -293 -975 -335 -123 -19 -372 -19 -530 0 -289 34 -445 74 -1051 273 -355 117 -541 172 -700 207 -139 31 -423 65 -542 65 -94 0 -320 -31 -396 -55 -25 -8 -84 -26 -131 -40 -47 -14 -101 -32 -120 -39 -19 -8 -62 -24 -95 -37 -60 -22 -78 -29 -170 -69 -219 -94 -443 -170 -591 -200 -87 -18 -142 -22 -269 -22 -311 1 -574 71 -975 260 -52 24 -140 66 -195 92 -278 132 -295 139 -483 215 -147 58 -177 68 -340 110 -166 43 -391 55 -597 34z"
       id="path1"
       style="fill:#ff5055;fill-opacity:1" />
  </g>
</svg>
