<?xml version="1.0" encoding="UTF-8" standalone="no"?>
<svg
   version="1.0"
   width="885.000000pt"
   height="1219.000000pt"
   viewBox="0 0 885.000000 1219.000000"
   preserveAspectRatio="xMidYMid meet"
   id="svg1"
   sodipodi:docname="cta-decorative-motiv.svg"
   inkscape:version="1.4.3 (0d15f75042, 2025-12-25)"
   xmlns:inkscape="http://www.inkscape.org/namespaces/inkscape"
   xmlns:sodipodi="http://sodipodi.sourceforge.net/DTD/sodipodi-0.dtd"
   xmlns="http://www.w3.org/2000/svg"
   xmlns:svg="http://www.w3.org/2000/svg">
  <defs
     id="defs1" />
  <sodipodi:namedview
     id="namedview1"
     pagecolor="#505050"
     bordercolor="#ffffff"
     borderopacity="1"
     inkscape:showpageshadow="0"
     inkscape:pageopacity="0"
     inkscape:pagecheckerboard="1"
     inkscape:deskcolor="#505050"
     inkscape:document-units="pt"
     inkscape:zoom="0.32916325"
     inkscape:cx="754.94455"
     inkscape:cy="1321.5327"
     inkscape:window-width="2400"
     inkscape:window-height="1279"
     inkscape:window-x="0"
     inkscape:window-y="0"
     inkscape:window-maximized="1"
     inkscape:current-layer="svg1" />
  <metadata
     id="metadata1">
Created by potrace 1.16, written by Peter Selinger 2001-2019
</metadata>
  <g
     transform="translate(0.000000,1219.000000) scale(0.100000,-0.100000)"
     fill="#000000"
     stroke="none"
     id="g1"
     style="fill:#ff5055;fill-opacity:1">
    <path
       d="M3889 11181 c-111 -34 -171 -127 -148 -229 14 -63 44 -113 82 -139 19 -13 77 -30 142 -43 428 -84 797 -222 1191 -446 667 -378 1238 -984 1573 -1669 115 -235 161 -393 161 -553 0 -176 -45 -295 -166 -436 -212 -249 -598 -440 -1126 -556 -88 -20 -274 -49 -309 -50 -9 0 -52 44 -95 98 -445 557 -919 1052 -1301 1359 -268 215 -607 417 -848 505 -278 102 -584 116 -818 37 -146 -49 -304 -177 -359 -289 -43 -88 -68 -194 -68 -289 0 -221 114 -429 390 -714 285 -295 617 -535 1005 -727 524 -260 1041 -386 1661 -406 l221 -7 80 -126 c202 -318 299 -528 381 -821 54 -192 66 -284 66 -525 1 -236 -12 -335 -70 -528 -83 -277 -274 -541 -504 -694 -280 -187 -655 -278 -1059 -257 l-133 7 -21 36 c-46 77 -218 333 -312 461 -479 655 -1053 1234 -1688 1703 -264 195 -423 287 -572 328 -107 31 -284 33 -365 5 -151 -51 -250 -133 -317 -262 -113 -216 -97 -474 46 -780 79 -167 171 -288 399 -517 236 -239 465 -426 757 -621 394 -263 750 -435 1206 -584 167 -55 391 -113 529 -137 46 -9 87 -19 91 -23 17 -17 179 -320 249 -467 207 -429 310 -808 310 -1142 0 -101 -12 -217 -26 -262 -6 -20 -25 -2 -198 199 -289 335 -330 370 -428 370 -141 0 -235 -127 -194 -262 14 -44 33 -71 112 -153 52 -55 116 -125 142 -155 262 -308 448 -488 569 -549 56 -28 125 -27 180 2 25 13 174 152 362 337 175 173 375 369 443 435 128 124 165 177 175 256 15 109 -83 210 -202 210 -77 0 -115 -24 -256 -161 -68 -67 -155 -149 -194 -183 l-70 -61 -7 85 c-28 333 -87 586 -205 884 -69 174 -85 210 -185 413 -44 90 -78 165 -76 167 1 1 73 8 158 15 403 31 723 131 995 313 112 74 129 88 239 195 143 139 282 339 364 523 162 361 211 828 133 1274 -56 321 -170 621 -369 969 -40 70 -71 131 -68 134 3 2 58 15 123 27 643 125 1209 435 1447 794 61 92 127 235 157 341 22 76 24 104 23 270 0 160 -3 196 -23 270 -101 378 -344 829 -661 1230 -421 533 -1016 993 -1650 1276 -241 107 -604 223 -873 278 -130 27 -156 29 -198 17z m-1084 -2510 c107 -28 406 -177 565 -282 351 -231 756 -611 1220 -1144 67 -77 130 -152 141 -167 l20 -28 -68 0 c-121 0 -404 47 -634 105 -411 104 -832 304 -1176 557 -194 142 -470 409 -561 541 -94 136 -122 238 -86 310 33 65 66 88 169 119 83 25 295 19 410 -11z m-1670 -2855 c103 -27 230 -105 470 -286 488 -369 984 -847 1348 -1302 92 -114 317 -420 317 -430 0 -14 -18 -9 -177 43 -423 139 -876 368 -1238 629 -210 150 -398 314 -602 523 -197 202 -281 335 -332 520 -64 236 20 355 214 303z"
       id="path1"
       style="fill:#ff5055;fill-opacity:1" />
  </g>
</svg>
