<?xml version="1.0" encoding="UTF-8" standalone="no"?>
<svg
   version="1.0"
   width="835.000000pt"
   height="877.000000pt"
   viewBox="0 0 835.000000 877.000000"
   preserveAspectRatio="xMidYMid meet"
   id="svg3"
   sodipodi:docname="hero-decorative-motiv-3.svg"
   inkscape:version="1.4.3 (0d15f75042, 2025-12-25)"
   xmlns:inkscape="http://www.inkscape.org/namespaces/inkscape"
   xmlns:sodipodi="http://sodipodi.sourceforge.net/DTD/sodipodi-0.dtd"
   xmlns="http://www.w3.org/2000/svg"
   xmlns:svg="http://www.w3.org/2000/svg">
  <defs
     id="defs3" />
  <sodipodi:namedview
     id="namedview3"
     pagecolor="#505050"
     bordercolor="#ffffff"
     borderopacity="1"
     inkscape:showpageshadow="0"
     inkscape:pageopacity="0"
     inkscape:pagecheckerboard="1"
     inkscape:deskcolor="#505050"
     inkscape:document-units="pt"
     inkscape:zoom="0.45752566"
     inkscape:cx="1182.4473"
     inkscape:cy="1051.3072"
     inkscape:window-width="2400"
     inkscape:window-height="1279"
     inkscape:window-x="0"
     inkscape:window-y="0"
     inkscape:window-maximized="1"
     inkscape:current-layer="svg3" />
  <metadata
     id="metadata1">
Created by potrace 1.16, written by Peter Selinger 2001-2019
</metadata>
  <g
     transform="matrix(0.04725507,-0.08813034,-0.08818368,-0.04728368,604.50624,1025.5719)"
     fill="#000000"
     stroke="none"
     id="g3"
     style="fill:#ff5055;fill-opacity:1">
    <path
       d="m 4740,8644 c -8,-2 -98,-13 -200,-24 -197,-22 -353,-46 -515,-80 -165,-34 -275,-58 -375,-80 -52,-11 -135,-30 -185,-40 -49,-11 -171,-38 -270,-60 -192,-44 -303,-68 -442,-99 -49,-11 -169,-38 -268,-60 -215,-49 -330,-75 -445,-101 -47,-10 -177,-39 -290,-65 -113,-26 -236,-53 -275,-60 -363,-70 -455,-94 -645,-168 -189,-74 -345,-172 -483,-306 l -77,-74 v -81 -81 l 63,-36 c 244,-144 495,-210 792,-210 175,0 292,16 635,86 41,8 145,29 230,46 175,36 283,58 420,88 52,11 129,27 170,36 41,8 102,22 135,30 33,8 105,23 160,35 55,11 129,27 165,35 67,15 418,91 575,125 50,10 149,31 220,45 72,13 162,32 200,40 39,8 133,26 210,40 77,14 156,30 175,35 19,5 64,14 100,20 76,13 124,23 395,86 235,54 317,89 399,170 81,80 119,164 124,277 4,73 1,98 -18,150 -50,138 -133,216 -284,267 -50,17 -84,20 -220,19 -89,-1 -168,-3 -176,-5 z"
       id="path1"
       style="fill:#ff5055;fill-opacity:1" />
    <path
       d="m 5667,6049 c -51,-12 -94,-34 -297,-157 -518,-312 -613,-379 -1025,-732 -315,-269 -477,-414 -1465,-1305 -378,-341 -634,-584 -716,-680 -104,-122 -163,-266 -166,-406 0,-43 1,-81 3,-84 14,-14 167,-27 259,-22 179,10 368,79 565,208 44,29 145,93 225,143 234,147 288,182 568,367 604,398 941,667 1332,1058 228,229 305,300 440,406 266,210 536,478 643,639 90,134 105,250 49,368 -40,82 -121,159 -199,188 -57,21 -148,25 -216,9 z"
       id="path2"
       style="fill:#ff5055;fill-opacity:1" />
    <path
       d="m 7354,4715 c -109,-23 -275,-105 -319,-157 -49,-58 -84,-137 -312,-703 -183,-454 -299,-766 -406,-1085 -225,-672 -387,-1365 -387,-1650 0,-134 6,-176 62,-492 l 42,-238 h 51 c 45,0 58,6 135,61 189,136 313,254 413,394 103,145 151,271 402,1050 47,149 91,284 96,300 29,86 224,704 269,850 10,33 27,90 39,128 23,73 51,166 81,265 20,65 45,145 80,260 79,253 100,366 102,527 1,186 -33,307 -118,412 -64,79 -126,99 -230,78 z"
       id="path3"
       style="fill:#ff5055;fill-opacity:1" />
  </g>
</svg>
