<?xml version="1.0" encoding="UTF-8" standalone="no"?>
<svg
   version="1.0"
   width="1033.000000pt"
   height="588.000000pt"
   viewBox="0 0 1033.000000 588.000000"
   preserveAspectRatio="xMidYMid meet"
   id="svg1"
   sodipodi:docname="hero-decorative-motiv-2.svg"
   inkscape:version="1.4.3 (0d15f75042, 2025-12-25)"
   xmlns:inkscape="http://www.inkscape.org/namespaces/inkscape"
   xmlns:sodipodi="http://sodipodi.sourceforge.net/DTD/sodipodi-0.dtd"
   xmlns="http://www.w3.org/2000/svg"
   xmlns:svg="http://www.w3.org/2000/svg">
  <defs
     id="defs1" />
  <sodipodi:namedview
     id="namedview1"
     pagecolor="#505050"
     bordercolor="#ffffff"
     borderopacity="1"
     inkscape:showpageshadow="0"
     inkscape:pageopacity="0"
     inkscape:pagecheckerboard="1"
     inkscape:deskcolor="#505050"
     inkscape:document-units="pt"
     inkscape:zoom="0.34119898"
     inkscape:cx="2267.0056"
     inkscape:cy="1351.1178"
     inkscape:window-width="2400"
     inkscape:window-height="1279"
     inkscape:window-x="0"
     inkscape:window-y="0"
     inkscape:window-maximized="1"
     inkscape:current-layer="svg1" />
  <metadata
     id="metadata1">
Created by potrace 1.16, written by Peter Selinger 2001-2019
</metadata>
  <g
     transform="translate(0.000000,588.000000) scale(0.100000,-0.100000)"
     fill="#000000"
     stroke="none"
     id="g1"
     style="fill:#ff5055;fill-opacity:1">
    <path
       d="M5120 5611 c-324 -37 -706 -131 -985 -244 -250 -101 -394 -171 -604 -292 -650 -373 -1244 -926 -1827 -1700 -211 -280 -477 -667 -689 -1002 -22 -35 -43 -63 -47 -63 -16 0 -35 291 -48 745 -13 423 -18 456 -81 517 -70 67 -181 82 -269 38 -47 -24 -75 -56 -101 -115 -22 -49 -22 -56 -16 -340 10 -429 38 -854 83 -1258 13 -113 14 -159 6 -200 -21 -103 14 -192 97 -247 83 -56 164 -54 268 7 37 22 131 78 208 123 462 273 993 500 1520 651 159 46 215 74 250 128 100 150 7 348 -168 359 -50 3 -86 -3 -187 -33 -321 -94 -656 -215 -914 -329 -32 -14 -60 -26 -62 -26 -15 0 11 44 121 206 361 533 622 866 963 1230 434 463 855 781 1387 1046 392 196 869 327 1264 347 479 24 878 -53 1228 -235 360 -188 650 -443 856 -752 68 -101 167 -279 167 -299 0 -5 -48 -28 -107 -51 -485 -187 -816 -606 -840 -1062 -19 -370 194 -678 524 -756 91 -22 252 -14 348 16 300 95 514 328 619 673 54 177 69 313 64 565 l-5 212 36 -6 c71 -13 207 -56 276 -87 523 -235 887 -787 999 -1512 31 -200 39 -397 31 -710 -11 -412 -11 -415 8 -452 39 -74 132 -133 208 -133 44 0 133 37 162 68 70 73 87 201 87 647 0 490 -55 864 -181 1221 -207 590 -580 1028 -1084 1274 -193 94 -351 137 -542 147 -61 3 -115 9 -120 12 -5 3 -28 51 -52 106 -80 184 -214 403 -344 565 -77 95 -309 327 -407 406 -402 325 -856 518 -1390 590 -184 24 -514 27 -710 5z m2566 -2258 c4 -37 4 -137 1 -222 -6 -184 -34 -308 -98 -436 -66 -135 -147 -204 -270 -231 -87 -20 -131 -10 -189 42 -50 45 -73 112 -73 213 0 270 202 527 523 668 41 18 80 33 87 33 7 0 14 -26 19 -67z"
       id="path1"
       style="fill:#ff5055;fill-opacity:1" />
  </g>
</svg>
