<?xml version="1.0" encoding="UTF-8" standalone="no"?>
<svg
   version="1.0"
   width="1369.000000pt"
   height="346.000000pt"
   viewBox="0 0 1369.000000 346.000000"
   preserveAspectRatio="xMidYMid meet"
   id="svg1"
   sodipodi:docname="hero-decorative-motiv-1.svg"
   inkscape:version="1.4.3 (0d15f75042, 2025-12-25)"
   xmlns:inkscape="http://www.inkscape.org/namespaces/inkscape"
   xmlns:sodipodi="http://sodipodi.sourceforge.net/DTD/sodipodi-0.dtd"
   xmlns="http://www.w3.org/2000/svg"
   xmlns:svg="http://www.w3.org/2000/svg">
  <defs
     id="defs1" />
  <sodipodi:namedview
     id="namedview1"
     pagecolor="#505050"
     bordercolor="#ffffff"
     borderopacity="1"
     inkscape:showpageshadow="0"
     inkscape:pageopacity="0"
     inkscape:pagecheckerboard="1"
     inkscape:deskcolor="#505050"
     inkscape:document-units="pt"
     inkscape:zoom="0.6176954"
     inkscape:cx="1083.0581"
     inkscape:cy="484.05735"
     inkscape:window-width="2400"
     inkscape:window-height="1279"
     inkscape:window-x="0"
     inkscape:window-y="0"
     inkscape:window-maximized="1"
     inkscape:current-layer="svg1" />
  <metadata
     id="metadata1">
Created by potrace 1.16, written by Peter Selinger 2001-2019
</metadata>
  <g
     transform="translate(0.000000,346.000000) scale(0.100000,-0.100000)"
     fill="#000000"
     stroke="none"
     id="g1"
     style="fill:#ff5055;fill-opacity:1">
    <path
       d="M12400 3270 c-41 -5 -106 -14 -145 -20 -38 -6 -124 -17 -190 -25 -275 -32 -384 -46 -445 -55 -36 -6 -119 -17 -185 -25 -66 -8 -154 -19 -195 -25 -41 -5 -145 -19 -230 -30 -178 -23 -395 -53 -590 -80 -74 -10 -220 -31 -325 -45 -104 -14 -235 -32 -290 -40 -55 -8 -169 -24 -252 -35 -84 -11 -220 -29 -303 -40 -271 -36 -453 -60 -565 -75 -60 -8 -177 -23 -260 -34 -785 -104 -1656 -201 -2195 -245 -461 -38 -1395 -96 -2495 -156 -579 -31 -765 -43 -1005 -65 -442 -40 -1073 -117 -1850 -226 -226 -32 -644 -130 -695 -163 -19 -12 -25 -25 -25 -52 0 -31 4 -37 38 -51 59 -25 261 -12 542 36 263 45 457 70 1055 136 226 25 464 52 530 60 552 67 973 100 1595 125 649 27 1862 106 2395 155 670 63 1014 104 1855 225 344 49 841 118 1105 154 264 36 548 75 630 86 83 12 215 30 295 41 216 29 415 59 505 74 300 52 1051 151 1410 185 61 6 139 15 175 21 112 17 534 24 570 9 32 -13 70 -54 70 -76 0 -31 -412 -136 -1058 -269 -591 -122 -1107 -212 -2247 -390 -263 -41 -810 -130 -1130 -185 -165 -28 -446 -76 -625 -106 -179 -30 -426 -73 -550 -95 -551 -99 -688 -115 -1141 -129 -354 -10 -371 -11 -829 -41 -639 -40 -1424 -129 -2155 -243 -1536 -240 -1879 -323 -2420 -591 -255 -126 -324 -185 -325 -278 -1 -105 114 -188 314 -226 130 -25 359 -28 511 -6 126 18 874 141 975 160 41 8 138 26 215 40 134 25 410 85 890 194 223 50 703 162 1660 386 1220 286 1483 345 1628 370 152 25 513 61 1016 100 266 21 636 53 751 65 128 13 721 56 1000 72 166 10 511 12 1310 10 597 -1 1272 2 1500 7 432 9 836 2 1046 -20 101 -10 127 -10 154 1 43 18 70 64 70 121 0 36 -5 50 -27 71 -16 15 -39 31 -53 36 -47 18 -547 25 -2222 31 -916 3 -1670 9 -1674 14 -4 4 -4 10 -1 13 6 7 265 48 652 104 847 123 1583 260 2165 401 519 127 705 201 750 302 56 122 -12 250 -166 315 -53 22 -74 24 -248 27 -105 2 -225 0 -266 -5z m-6962 -1697 c-3 -18 -2 -18 -398 -113 -1525 -368 -2756 -623 -3430 -709 -555 -72 -841 -90 -854 -54 -9 22 -5 25 109 81 334 163 722 286 1156 366 157 29 1418 213 1934 282 61 8 223 30 360 49 341 46 471 61 740 85 127 11 246 21 265 23 95 10 122 8 118 -10z"
       id="path1"
       style="fill:#ff5055;fill-opacity:1" />
  </g>
</svg>
