<?xml version="1.0" encoding="UTF-8" standalone="no"?>
<svg
   version="1.0"
   width="698.93164pt"
   height="618.55206pt"
   viewBox="0 0 698.93164 618.55206"
   preserveAspectRatio="xMidYMid"
   id="svg16"
   sodipodi:docname="services-automations-decorative-motiv.svg"
   inkscape:version="1.2.2 (b0a8486541, 2022-12-01)"
   xmlns:inkscape="http://www.inkscape.org/namespaces/inkscape"
   xmlns:sodipodi="http://sodipodi.sourceforge.net/DTD/sodipodi-0.dtd"
   xmlns="http://www.w3.org/2000/svg"
   xmlns:svg="http://www.w3.org/2000/svg">
  <defs
     id="defs20" />
  <sodipodi:namedview
     id="namedview18"
     pagecolor="#ffffff"
     bordercolor="#000000"
     borderopacity="0.25"
     inkscape:showpageshadow="2"
     inkscape:pageopacity="0.0"
     inkscape:pagecheckerboard="0"
     inkscape:deskcolor="#d1d1d1"
     inkscape:document-units="pt"
     showgrid="false"
     inkscape:zoom="0.61376953"
     inkscape:cx="479.00716"
     inkscape:cy="513.22196"
     inkscape:window-width="1920"
     inkscape:window-height="1012"
     inkscape:window-x="0"
     inkscape:window-y="0"
     inkscape:window-maximized="1"
     inkscape:current-layer="svg16" />
  <g
     transform="matrix(0.1,0,0,-0.1,-420.11837,844.60511)"
     fill="#000000"
     stroke="none"
     id="g14"
     style="fill:#ff5055;fill-opacity:1;stroke:#ff5055;stroke-opacity:1">
    <path
       d="m 9813,8440 c -23,-5 -51,-14 -62,-20 -33,-17 -70,-74 -100,-152 l -28,-73 -89,-8 c -49,-4 -98,-8 -109,-10 -15,-1 -33,18 -72,78 -29,44 -69,97 -90,118 -86,85 -203,75 -439,-38 -254,-123 -292,-202 -188,-391 19,-33 34,-67 34,-73 0,-22 -131,-171 -149,-171 -9,0 -54,14 -99,30 -106,39 -173,40 -225,5 -54,-37 -76,-91 -105,-254 -52,-292 -34,-338 158,-401 36,-11 72,-26 81,-33 53,-41 52,-126 -2,-300 -44,-137 -51,-196 -28,-223 31,-38 100,-40 120,-3 5,11 23,63 38,117 16,53 41,120 56,147 24,45 26,57 22,120 -7,92 -33,191 -62,236 -25,39 -82,71 -162,90 -70,17 -85,34 -78,84 13,87 48,241 57,253 15,18 53,15 106,-10 57,-26 160,-35 203,-18 18,8 62,52 108,109 43,53 88,105 100,115 26,24 44,86 35,123 -4,15 -24,61 -45,102 -22,41 -39,80 -39,87 0,48 245,174 339,174 42,0 55,-11 117,-104 21,-33 57,-79 80,-103 38,-41 44,-43 97,-43 30,0 68,5 82,10 15,6 70,12 124,14 53,2 106,8 117,14 39,21 64,60 91,142 35,105 42,109 181,93 105,-12 181,-39 225,-81 31,-30 35,-68 15,-182 -12,-68 -11,-73 12,-116 13,-25 33,-50 44,-56 56,-29 137,-87 188,-135 51,-47 61,-53 101,-53 24,0 70,9 103,20 109,36 131,28 188,-72 82,-145 93,-191 54,-230 -12,-13 -56,-44 -97,-69 -42,-26 -86,-61 -99,-80 -25,-37 -24,-55 11,-152 20,-57 20,-61 4,-128 -18,-74 -14,-101 21,-132 28,-26 89,-46 138,-47 81,0 104,-10 120,-49 13,-29 13,-46 5,-91 -13,-66 -58,-163 -94,-206 -41,-49 -66,-50 -155,-8 -91,42 -165,53 -207,32 -18,-10 -53,-55 -98,-129 -66,-109 -69,-116 -64,-164 3,-27 17,-75 31,-105 46,-98 37,-118 -88,-200 -73,-47 -160,-80 -211,-80 -40,0 -53,15 -84,101 -24,64 -53,95 -106,113 -38,13 -61,11 -165,-18 -69,-20 -180,-20 -265,-1 -62,15 -69,15 -103,-2 -29,-14 -45,-33 -72,-87 -27,-52 -44,-73 -72,-87 -21,-11 -42,-28 -48,-39 -16,-30 -15,-86 3,-113 44,-68 168,-11 239,110 l 33,55 65,-8 c 86,-10 170,-6 249,12 75,17 84,13 113,-56 40,-93 98,-142 186,-156 116,-18 399,129 487,254 41,60 42,141 3,225 l -28,58 29,57 c 16,31 37,67 47,80 l 19,23 73,-36 c 164,-79 294,-19 391,179 44,91 61,159 61,247 0,123 -74,212 -195,233 -76,13 -75,13 -75,70 0,28 -7,78 -15,109 -8,32 -15,60 -15,61 0,2 35,25 78,52 131,80 152,108 152,201 0,68 -40,169 -113,285 -55,89 -108,141 -164,163 -36,15 -52,15 -107,6 -35,-6 -80,-18 -100,-26 -50,-21 -58,-19 -86,20 -14,19 -47,49 -73,67 -80,51 -78,47 -71,157 6,79 3,108 -11,150 -31,95 -120,160 -277,200 -90,23 -245,34 -305,21 z"
       id="path2"
       style="fill:#ff5055;fill-opacity:1;stroke:#ff5055;stroke-opacity:1" />
    <path
       d="m 9502,7590 c -182,-39 -352,-156 -439,-301 -128,-214 -73,-518 126,-701 73,-67 167,-123 256,-151 59,-19 92,-22 215,-22 131,1 151,3 212,27 196,75 334,209 388,377 19,60 22,86 18,178 -7,173 -55,278 -188,413 -79,80 -167,134 -270,165 -65,19 -256,28 -318,15 z m 208,-161 c 295,-47 493,-383 365,-618 -95,-174 -354,-280 -554,-226 -204,54 -328,199 -347,404 -20,209 126,385 359,436 78,17 97,17 177,4 z"
       id="path4"
       style="fill:#ff5055;fill-opacity:1;stroke:#ff5055;stroke-opacity:1" />
    <path
       d="m 6406,7524 c -121,-20 -254,-61 -330,-102 -57,-31 -74,-46 -98,-90 -28,-49 -30,-59 -28,-145 2,-51 3,-121 4,-157 l 1,-65 -55,-15 c -30,-9 -72,-23 -94,-33 -21,-9 -40,-17 -43,-17 -2,0 -51,-19 -110,-42 l -106,-41 -46,50 c -25,28 -76,84 -113,125 -99,111 -146,127 -267,89 -168,-52 -459,-344 -507,-508 -32,-110 -2,-176 135,-301 49,-46 93,-91 96,-102 3,-10 -5,-45 -18,-77 -14,-32 -39,-103 -57,-158 -18,-55 -37,-104 -42,-110 -4,-5 -72,-12 -151,-16 -184,-9 -220,-19 -277,-77 -77,-80 -105,-213 -97,-461 7,-255 51,-379 152,-431 47,-24 59,-25 208,-26 122,-1 161,-4 172,-15 20,-20 155,-295 155,-316 0,-10 -49,-65 -109,-123 -92,-88 -111,-112 -121,-150 -10,-37 -9,-53 4,-96 27,-84 128,-226 249,-347 265,-265 375,-276 606,-62 71,66 78,67 141,36 30,-15 89,-42 130,-60 123,-53 114,-37 120,-225 5,-157 7,-166 35,-221 26,-50 39,-63 90,-91 33,-18 105,-45 160,-60 91,-25 117,-28 280,-28 205,-1 252,9 322,69 48,41 66,81 94,213 11,53 27,103 34,111 8,8 62,18 142,27 70,7 144,16 163,19 44,7 55,-1 115,-93 132,-202 196,-237 367,-201 104,22 274,117 423,235 163,129 174,208 52,392 -26,38 -49,76 -53,85 -4,12 12,34 52,75 33,31 88,94 124,140 54,68 69,82 93,82 15,0 94,-16 175,-36 107,-26 157,-34 188,-29 84,12 144,106 224,350 41,122 43,137 44,250 1,178 -12,195 -230,295 -70,32 -130,64 -135,72 -4,7 -5,67 -2,131 6,115 7,118 32,131 14,7 42,16 61,20 54,9 183,52 228,75 141,72 172,206 99,424 -39,115 -126,298 -175,369 -40,57 -101,114 -135,127 -62,24 -179,0 -298,-59 -30,-16 -71,-31 -91,-35 -34,-7 -37,-5 -96,67 -33,40 -74,86 -91,102 -17,17 -31,37 -31,45 0,8 20,56 45,105 69,142 76,199 35,309 -51,135 -241,275 -484,357 -128,44 -197,9 -302,-150 -71,-108 -85,-120 -136,-120 -39,0 -298,37 -321,45 -19,8 -33,42 -47,120 -32,168 -86,274 -163,319 -79,46 -230,57 -391,30 z m 257,-164 c 57,0 100,-79 138,-255 43,-194 67,-214 306,-245 89,-11 182,-24 207,-29 62,-11 126,-4 156,18 27,19 68,72 115,148 46,74 94,123 121,123 31,0 197,-77 260,-121 49,-33 99,-85 121,-123 27,-46 16,-106 -42,-226 -78,-162 -77,-166 33,-283 49,-52 110,-122 135,-155 95,-123 143,-128 329,-38 177,85 191,81 271,-79 90,-182 146,-334 147,-398 0,-39 -53,-74 -161,-107 -150,-46 -186,-60 -229,-91 -71,-51 -73,-59 -75,-257 -2,-249 -2,-249 205,-343 73,-32 140,-65 148,-71 42,-35 -30,-373 -103,-485 -22,-33 -75,-30 -225,12 -204,58 -219,53 -348,-115 -49,-63 -117,-140 -150,-171 -34,-31 -66,-69 -72,-85 -18,-47 6,-116 74,-212 42,-60 66,-106 66,-129 0,-41 -175,-171 -327,-243 -97,-46 -124,-54 -158,-46 -35,9 -57,36 -124,151 -65,111 -113,161 -165,170 -19,4 -83,0 -143,-9 -59,-8 -146,-18 -193,-21 -126,-9 -147,-13 -179,-41 -35,-29 -56,-87 -81,-225 -26,-149 -31,-153 -208,-157 -209,-6 -367,30 -409,94 -15,24 -17,46 -15,158 4,239 -14,273 -194,349 -60,26 -145,62 -189,82 -95,41 -147,45 -192,13 -51,-37 -107,-82 -118,-94 -30,-33 -120,-94 -139,-94 -34,0 -138,77 -238,176 -119,119 -169,184 -175,232 -5,38 -3,41 63,98 143,124 164,146 176,186 16,53 3,99 -61,213 -28,50 -67,128 -87,175 -37,89 -68,130 -119,158 -25,14 -57,16 -190,14 -183,-3 -203,3 -222,61 -24,71 -33,234 -21,367 13,156 26,201 59,217 15,7 98,17 185,22 232,13 244,20 307,207 19,55 48,131 64,170 66,153 59,178 -89,316 -117,108 -140,141 -131,179 28,110 340,408 428,409 25,0 71,-47 148,-152 70,-95 114,-121 202,-121 49,-1 77,7 155,42 86,39 201,79 319,111 80,21 118,89 107,193 -15,143 -16,168 -7,208 12,52 34,70 120,97 135,43 273,65 351,56 19,-2 48,-4 63,-4 z"
       id="path6"
       style="fill:#ff5055;fill-opacity:1;stroke:#ff5055;stroke-opacity:1" />
    <path
       d="m 6468,6240 c -455,-82 -765,-394 -809,-813 -25,-233 54,-507 199,-689 140,-176 340,-301 582,-365 131,-34 372,-43 484,-19 396,88 687,332 766,642 41,160 21,393 -49,568 -131,328 -384,564 -702,657 -60,17 -106,22 -249,25 -96,1 -196,-1 -222,-6 z m 372,-174 c 130,-30 208,-61 299,-120 92,-59 149,-112 217,-202 118,-158 187,-359 187,-549 1,-218 -65,-353 -237,-487 -108,-85 -136,-101 -270,-147 -202,-70 -366,-75 -575,-20 -300,80 -528,307 -602,599 -29,114 -23,295 13,416 88,292 372,494 738,523 52,5 102,9 110,9 8,1 62,-9 120,-22 z"
       id="path8"
       style="fill:#ff5055;fill-opacity:1;stroke:#ff5055;stroke-opacity:1" />
    <path
       d="m 9400,4700 c -76,-9 -109,-19 -170,-50 -120,-60 -145,-99 -137,-212 l 5,-79 -66,-54 c -37,-30 -93,-84 -125,-120 -84,-94 -96,-99 -234,-90 -114,7 -114,7 -154,-21 -46,-31 -74,-81 -113,-198 -78,-233 -51,-330 106,-377 75,-23 69,-14 107,-168 20,-82 18,-111 -11,-111 -21,0 -120,-73 -139,-102 -17,-28 -20,-45 -16,-110 3,-64 10,-90 40,-150 47,-95 147,-205 219,-241 89,-45 135,-45 261,-2 l 108,37 41,-28 c 56,-39 66,-60 66,-131 0,-72 19,-111 73,-148 83,-58 268,-95 402,-81 77,9 180,56 209,96 10,14 24,50 31,80 8,30 20,57 28,62 13,6 153,67 210,91 24,10 31,6 75,-33 62,-54 100,-70 167,-70 115,0 268,122 351,280 70,132 55,235 -45,306 -24,18 -42,38 -40,45 2,8 14,43 26,79 23,71 21,69 141,100 96,24 134,109 114,256 -34,256 -135,366 -305,335 -55,-10 -60,-10 -83,11 -45,43 -45,51 -3,131 68,129 65,220 -12,316 -88,110 -295,214 -392,195 -22,-4 -57,-26 -96,-61 -48,-42 -65,-52 -82,-47 -58,19 -125,34 -148,34 -32,0 -49,19 -83,90 -62,133 -130,162 -326,140 z m 152,-177 c 9,-8 25,-38 35,-66 25,-70 86,-133 138,-142 22,-4 74,-16 115,-27 138,-38 209,-25 293,56 23,21 48,36 63,36 37,0 113,-42 173,-96 53,-48 53,-48 49,-98 -3,-38 -15,-68 -46,-117 -59,-94 -58,-121 14,-227 76,-112 106,-126 235,-107 76,10 101,-7 128,-88 24,-69 28,-179 9,-195 -7,-6 -49,-19 -93,-31 -92,-23 -127,-53 -145,-123 -6,-24 -24,-70 -40,-103 -38,-75 -40,-136 -7,-166 12,-12 47,-36 77,-53 50,-29 55,-35 53,-64 -2,-50 -48,-134 -102,-187 -93,-91 -133,-98 -195,-31 -45,48 -92,76 -129,76 -13,0 -64,-20 -113,-44 -50,-24 -115,-49 -145,-55 -89,-19 -123,-49 -149,-127 -30,-90 -52,-110 -127,-119 -102,-11 -256,19 -278,55 -4,6 -8,41 -9,78 -1,38 -10,81 -19,98 -21,41 -162,140 -220,156 -40,10 -52,8 -161,-30 -139,-48 -153,-46 -229,30 -51,51 -107,155 -107,200 0,31 38,64 112,96 49,21 78,60 78,105 0,13 -9,59 -19,103 -11,43 -25,112 -32,153 -15,95 -46,133 -138,164 -35,12 -69,30 -75,39 -14,23 8,148 38,215 32,69 45,75 148,62 105,-14 149,-3 210,50 24,22 68,70 97,108 43,57 65,76 127,108 98,51 108,70 99,180 -6,78 -6,82 17,97 33,21 94,40 158,48 62,8 88,4 112,-17 z"
       id="path10"
       style="fill:#ff5055;fill-opacity:1;stroke:#ff5055;stroke-opacity:1" />
    <path
       d="m 9575,3990 c -218,-29 -411,-203 -445,-402 -50,-284 192,-563 507,-584 330,-23 611,250 564,547 -6,37 -27,98 -51,145 -101,206 -336,325 -575,294 z m 211,-177 c 101,-34 177,-103 222,-202 88,-190 -40,-404 -262,-439 -176,-28 -354,60 -419,207 -24,56 -33,161 -18,218 37,135 182,232 352,233 45,0 95,-7 125,-17 z m -499,-355 c -3,-8 -6,-5 -6,6 -1,11 2,17 5,13 3,-3 4,-12 1,-19 z"
       id="path12"
       style="fill:#ff5055;fill-opacity:1;stroke:#ff5055;stroke-opacity:1" />
  </g>
</svg>
