<?xml version="1.0" encoding="UTF-8" standalone="no"?>
<svg
   version="1.0"
   width="374.38635pt"
   height="298.03479pt"
   viewBox="0 0 374.38635 298.03479"
   preserveAspectRatio="xMidYMid"
   id="svg12"
   sodipodi:docname="services-ai-decorative-motiv.svg"
   inkscape:version="1.2.2 (b0a8486541, 2022-12-01)"
   xmlns:inkscape="http://www.inkscape.org/namespaces/inkscape"
   xmlns:sodipodi="http://sodipodi.sourceforge.net/DTD/sodipodi-0.dtd"
   xmlns="http://www.w3.org/2000/svg"
   xmlns:svg="http://www.w3.org/2000/svg">
  <defs
     id="defs16" />
  <sodipodi:namedview
     id="namedview14"
     pagecolor="#ffffff"
     bordercolor="#000000"
     borderopacity="0.25"
     inkscape:showpageshadow="2"
     inkscape:pageopacity="0.0"
     inkscape:pagecheckerboard="0"
     inkscape:deskcolor="#d1d1d1"
     inkscape:document-units="pt"
     showgrid="false"
     inkscape:zoom="1.3345844"
     inkscape:cx="242.39755"
     inkscape:cy="254.01166"
     inkscape:window-width="1920"
     inkscape:window-height="1012"
     inkscape:window-x="0"
     inkscape:window-y="0"
     inkscape:window-maximized="1"
     inkscape:current-layer="svg12" />
  <g
     transform="matrix(0.1,0,0,-0.1,-31.480306,318.77853)"
     fill="#000000"
     stroke="none"
     id="g10"
     style="fill:#ff5055;fill-opacity:1">
    <path
       d="m 2885,3173 c -54,-19 -91,-57 -110,-111 -19,-57 -19,-68 2,-131 17,-55 69,-111 103,-111 10,0 21,-3 23,-7 5,-8 -11,-264 -16,-270 -2,-1 -84,2 -183,8 -393,23 -686,27 -738,9 -17,-5 -61,-11 -96,-11 -36,0 -87,-5 -115,-9 -27,-5 -105,-12 -172,-15 l -123,-7 v 51 c 0,44 -20,154 -36,194 -3,10 10,24 40,41 60,35 86,85 86,167 0,53 -4,66 -31,100 -40,51 -67,64 -162,80 -87,15 -125,7 -184,-37 -36,-27 -63,-103 -63,-176 0,-86 86,-178 168,-178 28,0 32,-3 32,-25 0,-14 7,-42 15,-62 9,-20 15,-66 15,-107 v -72 l -52,-12 c -29,-7 -69,-16 -88,-21 -58,-13 -172,-62 -217,-92 -46,-32 -101,-96 -128,-148 -29,-58 -65,-172 -65,-208 0,-57 -13,-70 -71,-72 -87,-2 -169,-21 -228,-53 -60,-34 -101,-66 -101,-81 0,-5 -13,-39 -29,-76 -26,-59 -31,-84 -40,-221 -5,-85 -8,-168 -5,-185 25,-158 52,-223 110,-275 51,-45 138,-80 217,-89 77,-8 87,-17 87,-76 0,-22 9,-72 21,-110 11,-39 27,-92 35,-120 8,-27 27,-66 44,-86 16,-21 35,-50 42,-66 19,-43 53,-81 116,-127 60,-44 81,-55 122,-62 14,-3 46,-13 71,-24 40,-17 89,-30 162,-45 40,-9 174,-23 202,-22 17,1 84,-3 150,-8 149,-11 403,-10 875,3 347,10 489,21 546,42 14,6 36,10 48,10 32,0 146,37 165,54 9,8 35,23 58,35 63,31 155,127 185,191 14,30 35,75 46,100 21,45 39,127 51,230 l 6,55 35,-1 c 19,-1 67,5 105,13 59,12 77,21 115,57 57,54 92,107 114,174 16,46 17,79 12,250 -3,108 -12,227 -19,264 -19,91 -63,156 -131,190 -56,29 -176,58 -237,58 -22,0 -39,2 -39,4 0,2 -9,48 -20,102 -30,146 -73,226 -168,315 -71,67 -88,77 -173,108 -89,31 -132,42 -223,56 l -39,6 8,87 c 4,48 8,111 9,141 1,49 3,55 26,61 75,21 144,85 156,146 10,55 -12,136 -45,168 -53,50 -191,70 -276,39 z m 156,-94 c 27,-19 30,-26 27,-68 -3,-41 -6,-48 -38,-63 -36,-18 -97,-23 -116,-10 -31,20 -43,86 -23,123 22,42 103,51 150,18 z m -1640,-63 c 15,-12 19,-27 17,-54 -3,-33 -8,-40 -48,-59 -48,-25 -119,-30 -138,-11 -20,20 -15,92 9,122 18,24 26,26 80,23 38,-3 68,-10 80,-21 z m 1219,-581 c 74,-3 169,-7 210,-9 41,-2 107,-9 145,-15 39,-7 99,-17 135,-23 55,-9 146,-41 186,-66 73,-45 127,-98 154,-153 16,-34 30,-73 30,-88 0,-14 7,-58 16,-96 8,-39 19,-110 24,-158 5,-48 12,-92 15,-97 3,-4 7,-161 9,-347 6,-488 -9,-612 -91,-768 -24,-45 -90,-125 -103,-125 -5,0 -26,-11 -46,-25 -20,-14 -44,-25 -53,-25 -9,0 -28,-6 -42,-14 -39,-20 -128,-45 -184,-51 -480,-50 -905,-61 -1325,-35 -323,19 -496,56 -607,127 -52,33 -64,46 -142,151 -45,61 -73,167 -92,337 -16,142 -20,407 -9,490 5,39 12,122 15,185 3,63 12,142 19,175 8,33 14,67 14,75 6,152 50,286 114,346 56,53 128,95 179,104 27,5 60,15 72,22 12,7 45,15 72,19 28,4 102,15 165,24 160,24 170,25 310,30 69,2 159,8 200,12 79,10 384,9 610,-2 z M 751,1789 c -17,-70 -41,-408 -41,-570 0,-84 -4,-149 -9,-149 -22,0 -119,24 -147,36 -44,19 -61,42 -85,115 -17,52 -21,87 -20,191 1,126 6,164 38,286 11,43 24,69 39,79 27,17 218,65 232,57 2,-1 -2,-21 -7,-45 z m 3021,15 c 82,-21 93,-28 106,-61 34,-93 42,-145 48,-303 6,-147 5,-176 -11,-226 -23,-74 -70,-119 -145,-140 -30,-9 -63,-18 -72,-20 -17,-5 -18,7 -19,148 -1,245 -12,506 -24,576 -8,42 -7,42 23,42 17,0 59,-7 94,-16 z"
       id="path2"
       style="fill:#ff5055;fill-opacity:1" />
    <path
       d="m 2519,1899 c -20,-20 -21,-29 -16,-108 4,-47 11,-187 18,-311 10,-206 13,-227 31,-242 25,-22 37,-22 67,-1 l 24,16 -7,186 c -11,344 -18,456 -28,469 -16,19 -66,14 -89,-9 z"
       id="path4"
       style="fill:#ff5055;fill-opacity:1" />
    <path
       d="m 1740,1880 c -11,-7 -15,-34 -16,-122 -1,-62 -5,-199 -8,-304 -6,-175 -5,-191 11,-206 31,-27 77,-27 92,0 16,30 26,609 11,627 -14,17 -67,20 -90,5 z"
       id="path6"
       style="fill:#ff5055;fill-opacity:1" />
    <path
       d="m 2848,1104 c -12,-11 -9,-60 4,-90 12,-25 10,-29 -43,-78 -216,-202 -310,-246 -582,-275 -62,-7 -99,-5 -175,10 -159,30 -282,70 -342,110 -30,20 -77,50 -105,67 -27,17 -70,52 -95,77 -38,39 -43,48 -32,63 27,38 45,81 39,96 -10,26 -51,18 -134,-25 -43,-23 -95,-50 -116,-61 -43,-21 -52,-37 -43,-72 8,-31 44,-39 95,-21 l 42,14 92,-89 c 79,-77 106,-96 207,-145 191,-94 205,-99 351,-120 167,-24 278,-20 413,14 184,47 232,74 428,239 48,40 94,82 101,93 13,18 16,18 43,4 43,-22 83,-19 93,7 14,37 2,54 -82,118 -77,60 -139,85 -159,64 z"
       id="path8"
       style="fill:#ff5055;fill-opacity:1" />
  </g>
</svg>
