<?xml version="1.0" encoding="UTF-8" standalone="no"?>
<svg
   version="1.0"
   width="759.000000pt"
   height="1107.000000pt"
   viewBox="0 0 759.000000 1107.000000"
   preserveAspectRatio="xMidYMid meet"
   id="svg2"
   sodipodi:docname="services-automations-decorative-motiv.svg"
   inkscape:version="1.4.3 (0d15f75042, 2025-12-25)"
   xmlns:inkscape="http://www.inkscape.org/namespaces/inkscape"
   xmlns:sodipodi="http://sodipodi.sourceforge.net/DTD/sodipodi-0.dtd"
   xmlns="http://www.w3.org/2000/svg"
   xmlns:svg="http://www.w3.org/2000/svg">
  <defs
     id="defs2" />
  <sodipodi:namedview
     id="namedview2"
     pagecolor="#505050"
     bordercolor="#ffffff"
     borderopacity="1"
     inkscape:showpageshadow="0"
     inkscape:pageopacity="0"
     inkscape:pagecheckerboard="1"
     inkscape:deskcolor="#505050"
     inkscape:document-units="pt"
     inkscape:zoom="0.51260451"
     inkscape:cx="461.36933"
     inkscape:cy="792.03361"
     inkscape:window-width="2400"
     inkscape:window-height="1279"
     inkscape:window-x="0"
     inkscape:window-y="0"
     inkscape:window-maximized="1"
     inkscape:current-layer="svg2" />
  <metadata
     id="metadata1">
Created by potrace 1.16, written by Peter Selinger 2001-2019
</metadata>
  <g
     transform="translate(0.000000,1107.000000) scale(0.100000,-0.100000)"
     fill="#000000"
     stroke="none"
     id="g2"
     style="fill:#ff5055;fill-opacity:1">
    <path
       d="M5725 10963 c-206 -24 -320 -54 -440 -115 -148 -75 -227 -139 -314 -252 -30 -39 -58 -71 -62 -70 -5 1 -16 2 -24 3 -9 0 -67 49 -129 109 -86 81 -131 116 -187 144 -313 154 -763 131 -1116 -57 -276 -147 -464 -381 -529 -661 -20 -88 -20 -269 1 -349 37 -146 153 -314 272 -396 l44 -31 -69 -71 c-243 -253 -354 -611 -269 -871 49 -151 126 -227 316 -312 53 -24 97 -48 99 -53 2 -5 -11 -33 -29 -62 -190 -323 -413 -895 -514 -1319 -43 -182 -36 -176 -104 -84 -31 44 -117 151 -190 239 -158 191 -219 276 -383 540 -227 365 -388 637 -654 1107 -259 457 -365 686 -414 898 -12 52 -35 145 -52 207 -16 62 -36 158 -43 213 -8 55 -19 109 -25 119 -20 38 -70 71 -107 71 -148 0 -283 -291 -383 -828 -44 -238 -44 -608 0 -868 84 -488 291 -938 658 -1429 357 -477 666 -716 1108 -858 145 -47 365 -97 425 -97 19 0 39 -4 45 -8 7 -4 13 -91 17 -252 4 -150 12 -270 21 -310 8 -36 13 -66 11 -68 -8 -9 -647 -18 -810 -11 -285 11 -857 10 -981 -2 -196 -19 -318 -51 -396 -102 -63 -42 -114 -187 -111 -317 1 -36 3 -209 5 -385 4 -359 5 -362 78 -435 22 -22 66 -53 99 -69 61 -31 196 -71 240 -71 14 0 31 -4 37 -8 6 -4 14 -50 17 -102 6 -106 33 -280 77 -495 27 -131 41 -249 101 -840 111 -1096 208 -1642 324 -1841 77 -132 226 -194 464 -194 137 0 281 22 561 85 237 53 333 65 545 65 574 1 1236 64 1571 150 251 65 384 141 440 251 65 128 94 337 94 668 0 291 17 460 100 973 11 71 30 185 41 255 53 332 81 524 109 763 4 41 14 173 21 293 l12 217 41 11 c72 19 143 58 180 99 94 104 166 337 200 645 8 72 20 153 26 180 7 28 13 86 13 130 2 117 -31 168 -143 225 -105 53 -177 65 -370 64 -179 -1 -308 -15 -640 -69 -231 -38 -206 -36 -1130 -94 -168 -11 -360 -23 -426 -27 l-122 -6 -25 43 c-22 38 -28 65 -38 184 -13 157 -7 581 11 710 75 556 317 1249 603 1727 52 86 52 86 100 92 83 11 171 44 257 96 46 27 85 48 87 46 2 -2 -2 -57 -8 -122 -15 -155 -7 -329 20 -414 89 -285 435 -512 742 -486 171 14 322 90 464 231 89 88 181 215 223 305 42 91 70 166 77 203 4 20 11 39 15 42 4 3 41 -10 81 -29 120 -55 240 -78 404 -78 334 0 600 109 806 330 218 233 332 619 258 879 -40 143 -121 283 -198 342 -17 13 -31 28 -31 34 0 5 22 39 49 76 89 122 126 226 137 385 11 165 -26 361 -99 519 -147 317 -491 565 -877 631 -89 15 -253 26 -305 19z m250 -249 c182 -31 350 -106 491 -218 100 -79 169 -162 222 -269 132 -264 117 -567 -34 -723 -55 -56 -92 -74 -175 -83 -112 -12 -156 -64 -130 -151 17 -57 45 -71 164 -82 152 -14 217 -61 286 -207 37 -79 46 -159 32 -277 -40 -325 -258 -590 -566 -687 -202 -63 -435 -56 -590 19 -83 40 -121 73 -168 146 -43 68 -80 86 -137 69 -66 -19 -80 -48 -80 -160 -1 -242 -100 -465 -286 -642 -173 -164 -359 -192 -574 -86 -84 41 -177 133 -215 211 -26 53 -30 73 -33 177 -5 130 8 262 44 453 33 177 32 200 -10 242 -29 29 -41 34 -82 34 -66 0 -112 -25 -235 -127 -137 -114 -223 -155 -333 -161 -102 -5 -179 13 -303 73 -78 38 -96 51 -117 88 -96 165 -28 447 163 673 65 78 168 161 210 170 209 44 285 107 250 208 -28 80 -133 103 -241 54 -60 -28 -87 -25 -158 16 -57 32 -144 118 -173 171 -89 159 -86 337 9 530 51 105 100 165 196 242 269 214 691 293 986 183 94 -35 125 -57 212 -145 97 -98 157 -140 215 -150 22 -4 54 -16 71 -26 40 -24 91 -24 131 1 18 11 62 64 101 122 59 87 81 112 148 159 74 53 169 101 258 129 125 40 305 50 451 24z m-5201 -1312 c9 -32 16 -67 16 -78 0 -33 57 -227 96 -326 81 -207 190 -417 467 -903 248 -434 480 -820 665 -1105 103 -158 110 -167 288 -380 140 -167 218 -273 282 -384 25 -43 56 -83 69 -89 17 -8 23 -18 23 -44 0 -20 -6 -36 -15 -39 -36 -14 -325 53 -485 113 -373 139 -650 381 -1009 882 -188 262 -341 554 -430 820 -134 400 -165 842 -86 1231 33 161 85 360 95 360 4 0 15 -26 24 -58z m4764 -4270 c34 -18 41 -27 38 -45 -15 -68 -25 -141 -31 -212 -17 -215 -58 -401 -116 -517 -26 -52 -33 -58 -86 -78 -118 -44 -364 -66 -848 -75 -176 -3 -399 -13 -495 -21 -475 -39 -1047 -69 -1780 -94 -173 -6 -394 -20 -490 -30 -335 -36 -416 -42 -615 -44 -130 0 -226 4 -275 12 -80 15 -189 58 -192 76 -1 6 -3 142 -5 301 -2 160 -4 317 -5 350 0 33 5 79 11 102 10 37 16 44 50 53 171 46 559 60 1116 40 513 -18 1139 4 2170 75 116 8 260 17 320 20 61 4 236 27 389 51 371 60 400 63 616 60 170 -2 189 -4 228 -24z m-436 -1252 c-7 -239 -45 -562 -132 -1100 -130 -805 -131 -809 -140 -1215 -7 -308 -10 -362 -30 -453 -13 -57 -33 -118 -44 -135 -54 -81 -303 -154 -706 -206 -312 -41 -785 -71 -1130 -71 -161 0 -296 -16 -475 -55 -323 -70 -436 -88 -585 -89 -254 -2 -284 24 -354 309 -85 339 -139 739 -256 1895 -21 205 -44 370 -71 505 -45 228 -71 417 -67 478 l3 42 155 7 c85 4 259 18 385 32 171 19 371 31 775 46 653 24 1202 53 1515 81 143 12 390 23 654 29 233 5 426 12 429 15 4 3 22 5 42 3 l35 -3 -3 -115z"
       id="path1"
       style="fill:#ff5055;fill-opacity:1" />
    <path
       d="M4980 9900 c-30 -11 -77 -22 -103 -26 -57 -8 -103 -42 -112 -82 -4 -19 -20 -35 -53 -54 -155 -88 -275 -252 -318 -435 -25 -105 -15 -288 18 -370 52 -125 124 -199 238 -245 83 -33 245 -31 355 5 287 95 539 388 563 655 23 247 -68 418 -270 511 -141 65 -220 75 -318 41z m203 -234 c113 -50 163 -125 161 -242 -5 -219 -208 -456 -444 -519 -65 -17 -102 -19 -152 -5 -149 42 -193 265 -91 468 35 69 128 155 210 194 44 21 71 41 86 65 40 63 138 80 230 39z"
       id="path2"
       style="fill:#ff5055;fill-opacity:1" />
  </g>
</svg>
