<?xml version="1.0" encoding="UTF-8" standalone="no"?>
<svg
   version="1.0"
   width="927.000000pt"
   height="931.000000pt"
   viewBox="0 0 927.000000 931.000000"
   preserveAspectRatio="xMidYMid meet"
   id="svg4"
   sodipodi:docname="services-ai-decorative-motiv.svg"
   inkscape:version="1.4.3 (0d15f75042, 2025-12-25)"
   xmlns:inkscape="http://www.inkscape.org/namespaces/inkscape"
   xmlns:sodipodi="http://sodipodi.sourceforge.net/DTD/sodipodi-0.dtd"
   xmlns="http://www.w3.org/2000/svg"
   xmlns:svg="http://www.w3.org/2000/svg">
  <defs
     id="defs4" />
  <sodipodi:namedview
     id="namedview4"
     pagecolor="#505050"
     bordercolor="#ffffff"
     borderopacity="1"
     inkscape:showpageshadow="0"
     inkscape:pageopacity="0"
     inkscape:pagecheckerboard="1"
     inkscape:deskcolor="#505050"
     inkscape:document-units="pt"
     inkscape:zoom="0.43098818"
     inkscape:cx="648.50966"
     inkscape:cy="791.20498"
     inkscape:window-width="2400"
     inkscape:window-height="1279"
     inkscape:window-x="0"
     inkscape:window-y="0"
     inkscape:window-maximized="1"
     inkscape:current-layer="svg4" />
  <metadata
     id="metadata1">
Created by potrace 1.16, written by Peter Selinger 2001-2019
</metadata>
  <g
     transform="translate(0.000000,931.000000) scale(0.100000,-0.100000)"
     fill="#000000"
     stroke="none"
     id="g4"
     style="fill:#ff5055;fill-opacity:1">
    <path
       d="M5141 9041 c-59 -13 -93 -15 -175 -8 -55 5 -166 6 -246 3 -584 -23 -1257 -248 -1899 -633 -788 -473 -1407 -1050 -1866 -1738 -335 -504 -556 -1014 -679 -1573 -68 -307 -96 -573 -96 -908 0 -841 190 -1513 597 -2108 497 -727 1302 -1304 2258 -1620 574 -189 1228 -279 1811 -248 632 34 1168 150 1689 367 530 221 943 493 1321 870 563 562 868 1172 994 1985 93 603 88 1682 -10 2293 -80 500 -248 961 -495 1358 -178 287 -352 477 -880 964 -493 455 -663 584 -939 716 -188 90 -509 182 -836 239 -58 11 -156 28 -219 39 -134 25 -229 25 -330 2z m374 -266 c643 -120 853 -190 1145 -384 157 -104 270 -199 630 -531 328 -302 559 -533 660 -660 341 -429 556 -951 649 -1575 87 -582 87 -1609 1 -2164 -71 -458 -198 -830 -398 -1166 -314 -529 -737 -938 -1302 -1262 -1027 -589 -2415 -737 -3613 -387 -65 19 -164 51 -220 70 -56 19 -122 42 -147 51 -88 30 -322 134 -469 208 -411 205 -739 441 -1056 759 -540 541 -818 1100 -924 1859 -186 1324 275 2627 1295 3664 216 219 393 375 624 549 671 505 1409 850 2030 948 234 37 498 41 605 10 46 -13 55 -13 95 2 74 28 133 43 170 43 19 1 120 -15 225 -34z"
       id="path1"
       style="fill:#ff5055;fill-opacity:1" />
    <path
       d="M5483 7245 c-70 -30 -88 -106 -87 -365 0 -135 7 -252 22 -380 12 -102 26 -248 32 -325 18 -250 59 -1080 75 -1495 26 -705 21 -663 80 -700 43 -27 94 -25 136 3 62 42 62 43 50 395 -34 949 -83 1833 -117 2097 -36 279 -42 458 -19 578 17 90 17 95 0 132 -32 67 -101 91 -172 60z"
       id="path2"
       style="fill:#ff5055;fill-opacity:1" />
    <path
       d="M3725 7006 c-44 -19 -83 -69 -99 -129 -22 -79 -36 -420 -46 -1132 -7 -502 -14 -688 -29 -865 -34 -371 -23 -720 25 -812 40 -77 142 -89 201 -24 38 41 40 58 18 191 -22 133 -19 381 9 696 21 234 25 356 30 834 7 700 21 1016 47 1059 37 61 13 148 -50 181 -36 18 -66 19 -106 1z"
       id="path3"
       style="fill:#ff5055;fill-opacity:1" />
    <path
       d="M2451 4013 c-13 -3 -85 -64 -160 -136 -75 -73 -229 -209 -341 -303 -113 -94 -211 -183 -218 -198 -26 -57 -5 -122 51 -156 52 -32 95 -26 163 22 32 23 61 45 64 49 9 13 105 89 112 89 3 0 14 -23 23 -51 44 -132 138 -263 319 -445 287 -287 776 -632 1131 -797 711 -330 1627 -318 2380 31 371 173 605 340 920 656 218 219 346 368 413 478 26 43 52 77 58 75 6 -1 35 -31 65 -67 64 -75 102 -91 169 -71 78 23 105 121 55 195 -28 42 -157 192 -337 393 -94 104 -127 134 -155 142 -85 24 -163 -34 -163 -122 0 -39 19 -68 113 -170 l67 -74 -26 -59 c-65 -147 -197 -307 -485 -590 -159 -155 -237 -221 -374 -315 -327 -225 -670 -369 -1053 -443 -353 -69 -746 -65 -1062 10 -357 84 -594 193 -955 439 -331 226 -598 458 -736 640 -87 116 -119 189 -124 287 l-4 69 121 117 c114 111 120 120 125 164 10 91 -65 159 -156 141z"
       id="path4"
       style="fill:#ff5055;fill-opacity:1" />
  </g>
</svg>
