<?xml version="1.0" encoding="UTF-8" standalone="no"?>
<svg
   version="1.0"
   width="1489.000000pt"
   height="965.000000pt"
   viewBox="0 0 1489.000000 965.000000"
   preserveAspectRatio="xMidYMid meet"
   id="svg1"
   sodipodi:docname="services-internal-programs-decorative-motiv.svg"
   inkscape:version="1.4.3 (0d15f75042, 2025-12-25)"
   xmlns:inkscape="http://www.inkscape.org/namespaces/inkscape"
   xmlns:sodipodi="http://sodipodi.sourceforge.net/DTD/sodipodi-0.dtd"
   xmlns="http://www.w3.org/2000/svg"
   xmlns:svg="http://www.w3.org/2000/svg">
  <defs
     id="defs1" />
  <sodipodi:namedview
     id="namedview1"
     pagecolor="#505050"
     bordercolor="#ffffff"
     borderopacity="1"
     inkscape:showpageshadow="0"
     inkscape:pageopacity="0"
     inkscape:pagecheckerboard="1"
     inkscape:deskcolor="#505050"
     inkscape:document-units="pt"
     inkscape:zoom="0.2940172"
     inkscape:cx="1790.7116"
     inkscape:cy="1567.9355"
     inkscape:window-width="2400"
     inkscape:window-height="1279"
     inkscape:window-x="0"
     inkscape:window-y="0"
     inkscape:window-maximized="1"
     inkscape:current-layer="svg1" />
  <metadata
     id="metadata1">
Created by potrace 1.16, written by Peter Selinger 2001-2019
</metadata>
  <g
     transform="translate(0.000000,965.000000) scale(0.100000,-0.100000)"
     fill="#000000"
     stroke="none"
     id="g1"
     style="fill:#ff5055;fill-opacity:1">
    <path
       d="M3745 9344 c-1090 -33 -1838 -127 -2235 -281 -165 -64 -294 -149 -360 -237 -232 -309 -391 -1042 -490 -2246 -41 -508 -77 -1375 -64 -1580 2 -41 9 -178 15 -305 17 -377 40 -560 96 -760 50 -178 146 -351 240 -435 199 -177 543 -302 978 -356 269 -33 845 -33 1195 0 91 9 188 18 215 20 85 8 381 44 585 71 754 98 1032 118 1670 119 650 1 935 -21 1495 -116 233 -39 245 -40 410 -35 104 3 246 16 365 33 236 34 518 38 710 11 225 -32 584 -111 741 -163 101 -33 183 -98 224 -179 l30 -59 3 -280 c5 -463 -27 -673 -140 -901 -74 -149 -167 -262 -335 -406 -167 -143 -341 -248 -493 -299 -87 -30 -259 -60 -336 -60 -93 0 -164 -18 -195 -49 -26 -26 -27 -32 -24 -112 3 -104 1 -94 27 -119 31 -29 77 -40 209 -50 66 -4 132 -15 155 -25 21 -9 82 -25 134 -36 539 -114 1018 -89 1542 81 77 25 299 133 373 181 287 189 480 465 569 814 60 238 74 561 42 948 -17 203 -20 355 -8 374 4 7 28 20 52 28 102 36 261 60 640 95 940 86 1333 160 1645 310 224 107 336 213 493 461 98 155 214 436 267 646 110 440 133 902 81 1623 -9 118 -25 341 -37 495 -63 868 -171 1373 -390 1831 -35 73 -62 116 -101 154 -124 124 -302 210 -593 285 -470 121 -934 171 -2315 250 -1155 66 -1395 90 -1690 167 -105 27 -125 29 -225 24 -66 -3 -150 -15 -210 -30 -55 -13 -127 -28 -160 -32 -68 -7 -89 -16 -127 -52 -27 -25 -28 -25 -205 -24 -200 0 -408 22 -743 76 -385 63 -404 64 -1100 96 -572 26 -793 31 -1625 34 -489 2 -939 2 -1000 0z m1420 -324 c658 -15 1052 -30 1630 -61 229 -12 293 -19 640 -69 149 -22 322 -47 385 -56 158 -22 511 -30 636 -14 105 13 124 19 164 55 24 21 44 27 223 65 l88 19 94 -25 c194 -50 634 -105 1025 -129 58 -3 159 -10 225 -15 66 -5 248 -16 405 -25 364 -19 591 -34 1150 -75 530 -39 1092 -128 1355 -215 238 -78 305 -123 367 -250 138 -283 240 -671 297 -1130 32 -262 45 -418 76 -925 9 -140 20 -300 25 -355 18 -181 23 -514 11 -688 -37 -553 -158 -935 -401 -1272 -69 -95 -119 -139 -223 -195 -258 -140 -637 -216 -1437 -290 -375 -34 -512 -50 -630 -71 -127 -22 -264 -61 -324 -91 -60 -31 -132 -103 -155 -158 -43 -100 -46 -177 -21 -557 32 -484 20 -681 -51 -898 -76 -229 -198 -395 -392 -532 -85 -60 -265 -149 -367 -181 -176 -56 -454 -105 -662 -117 -111 -7 -298 3 -298 15 0 3 44 36 98 73 111 75 290 225 373 313 172 182 287 399 349 658 49 202 61 322 67 676 6 373 0 421 -66 555 -69 138 -176 237 -334 309 -82 38 -147 56 -406 116 -326 75 -531 105 -805 116 -137 6 -306 -11 -591 -57 -33 -5 -127 -10 -210 -11 -133 -1 -177 3 -395 40 -327 54 -439 68 -735 92 -481 39 -1040 37 -1600 -5 -205 -16 -570 -52 -615 -60 -27 -6 -212 -30 -540 -70 -975 -121 -1690 -104 -2122 51 -142 51 -277 131 -336 199 -85 96 -145 298 -177 585 -100 924 27 2856 245 3738 72 289 143 462 220 539 188 185 874 315 1915 363 582 27 1219 34 1830 20z"
       id="path1"
       style="fill:#ff5055;fill-opacity:1" />
  </g>
</svg>
